  0
SECTION
  2
HEADER
  9
$ACADVER
  1
AC1014
  9
$HANDSEED
  5
FFFF
  9
$MEASUREMENT
 70
     1
  0
ENDSEC
  0
SECTION
  2
TABLES
  0
TABLE
  2
VPORT
  5
8
330
0
100
AcDbSymbolTable
 70
     4
  0
VPORT
  5
2E
330
8
100
AcDbSymbolTableRecord
100
AcDbViewportTableRecord
  2
*ACTIVE
 70
     0
 10
0.0
 20
0.0
 11
1.0
 21
1.0
 12
210.0
 22
148.5
 13
0.0
 23
0.0
 14
10.0
 24
10.0
 15
10.0
 25
10.0
 16
0.0
 26
0.0
 36
1.0
 17
0.0
 27
0.0
 37
0.0
 40
341.0
 41
1.24
 42
50.0
 43
0.0
 44
0.0
 50
0.0
 51
0.0
 71
     0
 72
   100
 73
     1
 74
     3
 75
     0
 76
     0
 77
     0
 78
     0
  0
ENDTAB
  0
TABLE
  2
LTYPE
  5
5
330
0
100
AcDbSymbolTable
 70
     1
  0
LTYPE
  5
14
330
5
100
AcDbSymbolTableRecord
100
AcDbLinetypeTableRecord
  2
BYBLOCK
 70
     0
  3

 72
    65
 73
     0
 40
0.0
  0
LTYPE
  5
15
330
5
100
AcDbSymbolTableRecord
100
AcDbLinetypeTableRecord
  2
BYLAYER
 70
     0
  3

 72
    65
 73
     0
 40
0.0
  0
LTYPE
  5
16
330
5
100
AcDbSymbolTableRecord
100
AcDbLinetypeTableRecord
  2
CONTINUOUS
 70
     0
  3
Solid line
 72
    65
 73
     0
 40
0.0
  0
ENDTAB
  0
TABLE
  2
LAYER
  5
2
100
AcDbSymbolTable
 70
2
  0
LAYER
  5
50
100
AcDbSymbolTableRecord
100
AcDbLayerTableRecord
  2
0
 70
0
  6
CONTINUOUS
  0
LAYER
  5
51
100
AcDbSymbolTableRecord
100
AcDbLayerTableRecord
  2
4chan_mixer_panel
 70
0
  6
CONTINUOUS
  0
ENDTAB
  0
TABLE
  2
STYLE
  5
3
330
0
100
AcDbSymbolTable
 70
     1
  0
STYLE
  5
11
330
3
100
AcDbSymbolTableRecord
100
AcDbTextStyleTableRecord
  2
STANDARD
 70
     0
 40
0.0
 41
1.0
 50
0.0
 71
     0
 42
2.5
  3
txt
  4

  0
ENDTAB
  0
TABLE
  2
VIEW
  5
6
330
0
100
AcDbSymbolTable
 70
     0
  0
ENDTAB
  0
TABLE
  2
UCS
  5
7
330
0
100
AcDbSymbolTable
 70
     0
  0
ENDTAB
  0
TABLE
  2
APPID
  5
9
330
0
100
AcDbSymbolTable
 70
     2
  0
APPID
  5
12
330
9
100
AcDbSymbolTableRecord
100
AcDbRegAppTableRecord
  2
ACAD
 70
     0
  0
ENDTAB
  0
TABLE
  2
DIMSTYLE
  5
A
330
0
100
AcDbSymbolTable
 70
     1
  0
DIMSTYLE
105
27
330
A
100
AcDbSymbolTableRecord
100
AcDbDimStyleTableRecord
  2
ISO-25
 70
     0
  3

  4

  5

  6

  7

 40
1.0
 41
2.5
 42
0.625
 43
3.75
 44
1.25
 45
0.0
 46
0.0
 47
0.0
 48
0.0
140
2.5
141
2.5
142
0.0
143
0.03937007874016
144
1.0
145
0.0
146
1.0
147
0.625
 71
     0
 72
     0
 73
     0
 74
     0
 75
     0
 76
     0
 77
     1
 78
     8
170
     0
171
     3
172
     1
173
     0
174
     0
175
     0
176
     0
177
     0
178
     0
270
     2
271
     2
272
     2
273
     2
274
     3
340
11
275
     0
280
     0
281
     0
282
     0
283
     0
284
     8
285
     0
286
     0
287
     3
288
     0
  0
ENDTAB
  0
TABLE
  2
BLOCK_RECORD
  5
1
330
0
100
AcDbSymbolTable
 70
     1
  0
BLOCK_RECORD
  5
1F
330
1
100
AcDbSymbolTableRecord
100
AcDbBlockTableRecord
  2
*MODEL_SPACE
  0
BLOCK_RECORD
  5
1B
330
1
100
AcDbSymbolTableRecord
100
AcDbBlockTableRecord
  2
*PAPER_SPACE
  0
ENDTAB
  0
ENDSEC
  0
SECTION
  2
BLOCKS
  0
BLOCK
  5
20
330
1F
100
AcDbEntity
  8
0
100
AcDbBlockBegin
  2
*MODEL_SPACE
 70
     0
 10
0.0
 20
0.0
 30
0.0
  3
*MODEL_SPACE
  1

  0
ENDBLK
  5
21
330
1F
100
AcDbEntity
  8
0
100
AcDbBlockEnd
  0
BLOCK
  5
1C
330
1B
100
AcDbEntity
 67
     1
  8
0
100
AcDbBlockBegin
  2
*PAPER_SPACE
  1

  0
ENDBLK
  5
1D
330
1B
100
AcDbEntity
 67
     1
  8
0
100
AcDbBlockEnd
  0
ENDSEC
  0
SECTION
  2
ENTITIES
  0
LWPOLYLINE
  5
100
100
AcDbEntity
  8
4chan_mixer_panel
 62
7
100
AcDbPolyline
 90
2
 70
0
 10
61.344130
 20
166.614792
 30
0.0
 10
56.889495
 20
158.596435
 30
0.0
  0
LWPOLYLINE
  5
101
100
AcDbEntity
  8
4chan_mixer_panel
 62
7
100
AcDbPolyline
 90
2
 70
0
 10
61.344130
 20
166.614792
 30
0.0
 10
53.147601
 20
162.516530
 30
0.0
  0
LWPOLYLINE
  5
102
100
AcDbEntity
  8
4chan_mixer_panel
 62
7
100
AcDbPolyline
 90
2
 70
0
 10
61.344130
 20
166.614792
 30
0.0
 10
52.256676
 20
167.683906
 30
0.0
  0
LWPOLYLINE
  5
103
100
AcDbEntity
  8
4chan_mixer_panel
 62
7
100
AcDbPolyline
 90
2
 70
0
 10
61.344130
 20
166.614792
 30
0.0
 10
54.394899
 20
172.494920
 30
0.0
  0
LWPOLYLINE
  5
104
100
AcDbEntity
  8
4chan_mixer_panel
 62
7
100
AcDbPolyline
 90
2
 70
0
 10
61.344130
 20
166.614792
 30
0.0
 10
58.849534
 20
175.345872
 30
0.0
  0
LWPOLYLINE
  5
105
100
AcDbEntity
  8
4chan_mixer_panel
 62
7
100
AcDbPolyline
 90
2
 70
0
 10
61.344130
 20
166.614792
 30
0.0
 10
63.838723
 20
175.345872
 30
0.0
  0
LWPOLYLINE
  5
106
100
AcDbEntity
  8
4chan_mixer_panel
 62
7
100
AcDbPolyline
 90
2
 70
0
 10
61.344130
 20
166.614792
 30
0.0
 10
68.293358
 20
172.494920
 30
0.0
  0
LWPOLYLINE
  5
107
100
AcDbEntity
  8
4chan_mixer_panel
 62
7
100
AcDbPolyline
 90
2
 70
0
 10
61.344130
 20
166.614792
 30
0.0
 10
70.431584
 20
167.683906
 30
0.0
  0
LWPOLYLINE
  5
108
100
AcDbEntity
  8
4chan_mixer_panel
 62
7
100
AcDbPolyline
 90
2
 70
0
 10
61.344130
 20
166.614792
 30
0.0
 10
69.540656
 20
162.516530
 30
0.0
  0
LWPOLYLINE
  5
109
100
AcDbEntity
  8
4chan_mixer_panel
 62
7
100
AcDbPolyline
 90
2
 70
0
 10
61.344130
 20
166.614792
 30
0.0
 10
65.976949
 20
158.596435
 30
0.0
  0
LWPOLYLINE
  5
10a
100
AcDbEntity
  8
4chan_mixer_panel
 62
7
100
AcDbPolyline
 90
2
 70
0
 10
61.344130
 20
166.614792
 30
0.0
 10
57.424052
 20
159.665549
 30
0.0
  0
LWPOLYLINE
  5
10b
100
AcDbEntity
  8
4chan_mixer_panel
 62
7
100
AcDbPolyline
 90
2
 70
0
 10
61.344130
 20
166.614792
 30
0.0
 10
56.354938
 20
160.200106
 30
0.0
  0
LWPOLYLINE
  5
10c
100
AcDbEntity
  8
4chan_mixer_panel
 62
7
100
AcDbPolyline
 90
2
 70
0
 10
61.344130
 20
166.614792
 30
0.0
 10
55.464010
 20
161.091054
 30
0.0
  0
LWPOLYLINE
  5
10d
100
AcDbEntity
  8
4chan_mixer_panel
 62
7
100
AcDbPolyline
 90
2
 70
0
 10
61.344130
 20
166.614792
 30
0.0
 10
54.751269
 20
161.981973
 30
0.0
  0
LWPOLYLINE
  5
10e
100
AcDbEntity
  8
4chan_mixer_panel
 62
7
100
AcDbPolyline
 90
2
 70
0
 10
61.344130
 20
166.614792
 30
0.0
 10
54.038528
 20
163.051087
 30
0.0
  0
LWPOLYLINE
  5
10f
100
AcDbEntity
  8
4chan_mixer_panel
 62
7
100
AcDbPolyline
 90
2
 70
0
 10
61.344130
 20
166.614792
 30
0.0
 10
53.682158
 20
164.120201
 30
0.0
  0
LWPOLYLINE
  5
110
100
AcDbEntity
  8
4chan_mixer_panel
 62
7
100
AcDbPolyline
 90
2
 70
0
 10
61.344130
 20
166.614792
 30
0.0
 10
53.325787
 20
165.367482
 30
0.0
  0
LWPOLYLINE
  5
111
100
AcDbEntity
  8
4chan_mixer_panel
 62
7
100
AcDbPolyline
 90
2
 70
0
 10
61.344130
 20
166.614792
 30
0.0
 10
53.325787
 20
166.436597
 30
0.0
  0
LWPOLYLINE
  5
112
100
AcDbEntity
  8
4chan_mixer_panel
 62
7
100
AcDbPolyline
 90
2
 70
0
 10
61.344130
 20
166.614792
 30
0.0
 10
53.325787
 20
167.505711
 30
0.0
  0
LWPOLYLINE
  5
113
100
AcDbEntity
  8
4chan_mixer_panel
 62
7
100
AcDbPolyline
 90
2
 70
0
 10
61.344130
 20
166.614792
 30
0.0
 10
53.503971
 20
168.574825
 30
0.0
  0
LWPOLYLINE
  5
114
100
AcDbEntity
  8
4chan_mixer_panel
 62
7
100
AcDbPolyline
 90
2
 70
0
 10
61.344130
 20
166.614792
 30
0.0
 10
53.860344
 20
169.822134
 30
0.0
  0
LWPOLYLINE
  5
115
100
AcDbEntity
  8
4chan_mixer_panel
 62
7
100
AcDbPolyline
 90
2
 70
0
 10
61.344130
 20
166.614792
 30
0.0
 10
54.394899
 20
170.891249
 30
0.0
  0
LWPOLYLINE
  5
116
100
AcDbEntity
  8
4chan_mixer_panel
 62
7
100
AcDbPolyline
 90
2
 70
0
 10
61.344130
 20
166.614792
 30
0.0
 10
55.107640
 20
171.782168
 30
0.0
  0
LWPOLYLINE
  5
117
100
AcDbEntity
  8
4chan_mixer_panel
 62
7
100
AcDbPolyline
 90
2
 70
0
 10
61.344130
 20
166.614792
 30
0.0
 10
55.998567
 20
172.673087
 30
0.0
  0
LWPOLYLINE
  5
118
100
AcDbEntity
  8
4chan_mixer_panel
 62
7
100
AcDbPolyline
 90
2
 70
0
 10
61.344130
 20
166.614792
 30
0.0
 10
56.889495
 20
173.385839
 30
0.0
  0
LWPOLYLINE
  5
119
100
AcDbEntity
  8
4chan_mixer_panel
 62
7
100
AcDbPolyline
 90
2
 70
0
 10
61.344130
 20
166.614792
 30
0.0
 10
57.958606
 20
173.920396
 30
0.0
  0
LWPOLYLINE
  5
11a
100
AcDbEntity
  8
4chan_mixer_panel
 62
7
100
AcDbPolyline
 90
2
 70
0
 10
61.344130
 20
166.614792
 30
0.0
 10
59.027720
 20
174.454953
 30
0.0
  0
LWPOLYLINE
  5
11b
100
AcDbEntity
  8
4chan_mixer_panel
 62
7
100
AcDbPolyline
 90
2
 70
0
 10
61.344130
 20
166.614792
 30
0.0
 10
60.275016
 20
174.633120
 30
0.0
  0
LWPOLYLINE
  5
11c
100
AcDbEntity
  8
4chan_mixer_panel
 62
7
100
AcDbPolyline
 90
2
 70
0
 10
61.344130
 20
166.614792
 30
0.0
 10
61.344130
 20
174.811315
 30
0.0
  0
LWPOLYLINE
  5
11d
100
AcDbEntity
  8
4chan_mixer_panel
 62
7
100
AcDbPolyline
 90
2
 70
0
 10
61.344130
 20
166.614792
 30
0.0
 10
62.413241
 20
174.633120
 30
0.0
  0
LWPOLYLINE
  5
11e
100
AcDbEntity
  8
4chan_mixer_panel
 62
7
100
AcDbPolyline
 90
2
 70
0
 10
61.344130
 20
166.614792
 30
0.0
 10
63.660539
 20
174.454953
 30
0.0
  0
LWPOLYLINE
  5
11f
100
AcDbEntity
  8
4chan_mixer_panel
 62
7
100
AcDbPolyline
 90
2
 70
0
 10
61.344130
 20
166.614792
 30
0.0
 10
64.729651
 20
173.920396
 30
0.0
  0
LWPOLYLINE
  5
120
100
AcDbEntity
  8
4chan_mixer_panel
 62
7
100
AcDbPolyline
 90
2
 70
0
 10
61.344130
 20
166.614792
 30
0.0
 10
65.798762
 20
173.385839
 30
0.0
  0
LWPOLYLINE
  5
121
100
AcDbEntity
  8
4chan_mixer_panel
 62
7
100
AcDbPolyline
 90
2
 70
0
 10
61.344130
 20
166.614792
 30
0.0
 10
66.689690
 20
172.673087
 30
0.0
  0
LWPOLYLINE
  5
122
100
AcDbEntity
  8
4chan_mixer_panel
 62
7
100
AcDbPolyline
 90
2
 70
0
 10
61.344130
 20
166.614792
 30
0.0
 10
67.580617
 20
171.782168
 30
0.0
  0
LWPOLYLINE
  5
123
100
AcDbEntity
  8
4chan_mixer_panel
 62
7
100
AcDbPolyline
 90
2
 70
0
 10
61.344130
 20
166.614792
 30
0.0
 10
68.293358
 20
170.891249
 30
0.0
  0
LWPOLYLINE
  5
124
100
AcDbEntity
  8
4chan_mixer_panel
 62
7
100
AcDbPolyline
 90
2
 70
0
 10
61.344130
 20
166.614792
 30
0.0
 10
68.827915
 20
169.822134
 30
0.0
  0
LWPOLYLINE
  5
125
100
AcDbEntity
  8
4chan_mixer_panel
 62
7
100
AcDbPolyline
 90
2
 70
0
 10
61.344130
 20
166.614792
 30
0.0
 10
69.184286
 20
168.574825
 30
0.0
  0
LWPOLYLINE
  5
126
100
AcDbEntity
  8
4chan_mixer_panel
 62
7
100
AcDbPolyline
 90
2
 70
0
 10
61.344130
 20
166.614792
 30
0.0
 10
69.362472
 20
167.505711
 30
0.0
  0
LWPOLYLINE
  5
127
100
AcDbEntity
  8
4chan_mixer_panel
 62
7
100
AcDbPolyline
 90
2
 70
0
 10
61.344130
 20
166.614792
 30
0.0
 10
69.362472
 20
166.436597
 30
0.0
  0
LWPOLYLINE
  5
128
100
AcDbEntity
  8
4chan_mixer_panel
 62
7
100
AcDbPolyline
 90
2
 70
0
 10
61.344130
 20
166.614792
 30
0.0
 10
69.362472
 20
165.367482
 30
0.0
  0
LWPOLYLINE
  5
129
100
AcDbEntity
  8
4chan_mixer_panel
 62
7
100
AcDbPolyline
 90
2
 70
0
 10
61.344130
 20
166.614792
 30
0.0
 10
69.006099
 20
164.120201
 30
0.0
  0
LWPOLYLINE
  5
12a
100
AcDbEntity
  8
4chan_mixer_panel
 62
7
100
AcDbPolyline
 90
2
 70
0
 10
61.344130
 20
166.614792
 30
0.0
 10
68.649729
 20
163.051087
 30
0.0
  0
LWPOLYLINE
  5
12b
100
AcDbEntity
  8
4chan_mixer_panel
 62
7
100
AcDbPolyline
 90
2
 70
0
 10
61.344130
 20
166.614792
 30
0.0
 10
67.936988
 20
161.981973
 30
0.0
  0
LWPOLYLINE
  5
12c
100
AcDbEntity
  8
4chan_mixer_panel
 62
7
100
AcDbPolyline
 90
2
 70
0
 10
61.344130
 20
166.614792
 30
0.0
 10
67.224247
 20
161.091054
 30
0.0
  0
LWPOLYLINE
  5
12d
100
AcDbEntity
  8
4chan_mixer_panel
 62
7
100
AcDbPolyline
 90
2
 70
0
 10
61.344130
 20
166.614792
 30
0.0
 10
66.333319
 20
160.200106
 30
0.0
  0
SPLINE
  5
12e
100
AcDbEntity
  8
4chan_mixer_panel
 62
7
100
AcDbSpline
 70
8
 71
3
 72
8
 73
4
 74
0
 40
0
 40
0
 40
0
 40
0
 40
1
 40
1
 40
1
 40
1
 10
58.671347
 20
166.614792
 30
0.0
 10
58.671347
 20
168.218463
 30
0.0
 10
59.740461
 20
169.287577
 30
0.0
 10
61.344130
 20
169.287577
 30
0.0
  0
SPLINE
  5
12f
100
AcDbEntity
  8
4chan_mixer_panel
 62
7
100
AcDbSpline
 70
8
 71
3
 72
8
 73
4
 74
0
 40
0
 40
0
 40
0
 40
0
 40
1
 40
1
 40
1
 40
1
 10
61.344130
 20
169.287577
 30
0.0
 10
62.947798
 20
169.287577
 30
0.0
 10
64.016910
 20
168.218463
 30
0.0
 10
64.016910
 20
166.614792
 30
0.0
  0
SPLINE
  5
130
100
AcDbEntity
  8
4chan_mixer_panel
 62
7
100
AcDbSpline
 70
8
 71
3
 72
8
 73
4
 74
0
 40
0
 40
0
 40
0
 40
0
 40
1
 40
1
 40
1
 40
1
 10
64.016910
 20
166.614792
 30
0.0
 10
64.016910
 20
165.011120
 30
0.0
 10
62.947798
 20
163.942006
 30
0.0
 10
61.344130
 20
163.942006
 30
0.0
  0
SPLINE
  5
131
100
AcDbEntity
  8
4chan_mixer_panel
 62
7
100
AcDbSpline
 70
8
 71
3
 72
8
 73
4
 74
0
 40
0
 40
0
 40
0
 40
0
 40
1
 40
1
 40
1
 40
1
 10
61.344130
 20
163.942006
 30
0.0
 10
59.740461
 20
163.942006
 30
0.0
 10
58.671347
 20
165.011120
 30
0.0
 10
58.671347
 20
166.614792
 30
0.0
  0
LWPOLYLINE
  5
132
100
AcDbEntity
  8
4chan_mixer_panel
 62
7
100
AcDbPolyline
 90
2
 70
0
 10
61.344130
 20
166.614792
 30
0.0
 10
65.442392
 20
159.665549
 30
0.0
  0
LWPOLYLINE
  5
133
100
AcDbEntity
  8
4chan_mixer_panel
 62
7
100
AcDbPolyline
 90
2
 70
0
 10
60.275016
 20
166.614792
 30
0.0
 10
62.413241
 20
166.614792
 30
0.0
  0
LWPOLYLINE
  5
134
100
AcDbEntity
  8
4chan_mixer_panel
 62
7
100
AcDbPolyline
 90
2
 70
0
 10
61.344130
 20
165.545678
 30
0.0
 10
61.344130
 20
167.683906
 30
0.0
  0
LWPOLYLINE
  5
135
100
AcDbEntity
  8
4chan_mixer_panel
 62
7
100
AcDbPolyline
 90
6
 70
1
 10
45.674894
 20
267.292627
 30
0.0
 10
45.691122
 20
267.292627
 30
0.0
 10
45.691122
 20
267.310266
 30
0.0
 10
45.674894
 20
267.310266
 30
0.0
 10
45.674894
 20
267.292627
 30
0.0
 10
45.674894
 20
267.292627
 30
0.0
  0
LWPOLYLINE
  5
136
100
AcDbEntity
  8
4chan_mixer_panel
 62
7
100
AcDbPolyline
 90
6
 70
1
 10
45.674894
 20
144.849105
 30
0.0
 10
45.691122
 20
144.849105
 30
0.0
 10
45.691122
 20
144.866744
 30
0.0
 10
45.674894
 20
144.866744
 30
0.0
 10
45.674894
 20
144.849105
 30
0.0
 10
45.674894
 20
144.849105
 30
0.0
  0
LWPOLYLINE
  5
137
100
AcDbEntity
  8
4chan_mixer_panel
 62
7
100
AcDbPolyline
 90
6
 70
1
 10
170.516952
 20
144.849105
 30
0.0
 10
170.533180
 20
144.849105
 30
0.0
 10
170.533180
 20
144.866744
 30
0.0
 10
170.516952
 20
144.866744
 30
0.0
 10
170.516952
 20
144.849105
 30
0.0
 10
170.516952
 20
144.849105
 30
0.0
  0
SPLINE
  5
138
100
AcDbEntity
  8
4chan_mixer_panel
 62
7
100
AcDbSpline
 70
8
 71
3
 72
8
 73
4
 74
0
 40
0
 40
0
 40
0
 40
0
 40
1
 40
1
 40
1
 40
1
 10
31.330538
 20
163.899692
 30
0.0
 10
31.330538
 20
165.670665
 30
0.0
 10
32.511183
 20
166.851313
 30
0.0
 10
34.282147
 20
166.851313
 30
0.0
  0
SPLINE
  5
139
100
AcDbEntity
  8
4chan_mixer_panel
 62
7
100
AcDbSpline
 70
8
 71
3
 72
8
 73
4
 74
0
 40
0
 40
0
 40
0
 40
0
 40
1
 40
1
 40
1
 40
1
 10
34.282147
 20
166.851313
 30
0.0
 10
36.053112
 20
166.851313
 30
0.0
 10
37.233754
 20
165.670665
 30
0.0
 10
37.233754
 20
163.899692
 30
0.0
  0
SPLINE
  5
13a
100
AcDbEntity
  8
4chan_mixer_panel
 62
7
100
AcDbSpline
 70
8
 71
3
 72
8
 73
4
 74
0
 40
0
 40
0
 40
0
 40
0
 40
1
 40
1
 40
1
 40
1
 10
37.233754
 20
163.899692
 30
0.0
 10
37.233754
 20
162.128720
 30
0.0
 10
36.053112
 20
160.948071
 30
0.0
 10
34.282147
 20
160.948071
 30
0.0
  0
SPLINE
  5
13b
100
AcDbEntity
  8
4chan_mixer_panel
 62
7
100
AcDbSpline
 70
8
 71
3
 72
8
 73
4
 74
0
 40
0
 40
0
 40
0
 40
0
 40
1
 40
1
 40
1
 40
1
 10
34.282147
 20
160.948071
 30
0.0
 10
32.511183
 20
160.948071
 30
0.0
 10
31.330538
 20
162.128720
 30
0.0
 10
31.330538
 20
163.899692
 30
0.0
  0
LWPOLYLINE
  5
13c
100
AcDbEntity
  8
4chan_mixer_panel
 62
7
100
AcDbPolyline
 90
6
 70
1
 10
170.516952
 20
267.292627
 30
0.0
 10
170.533180
 20
267.292627
 30
0.0
 10
170.533180
 20
267.310266
 30
0.0
 10
170.516952
 20
267.310266
 30
0.0
 10
170.516952
 20
267.292627
 30
0.0
 10
170.516952
 20
267.292627
 30
0.0
  0
LWPOLYLINE
  5
13d
100
AcDbEntity
  8
4chan_mixer_panel
 62
7
100
AcDbPolyline
 90
2
 70
0
 10
33.101502
 20
163.899692
 30
0.0
 10
35.462790
 20
163.899692
 30
0.0
  0
LWPOLYLINE
  5
13e
100
AcDbEntity
  8
4chan_mixer_panel
 62
7
100
AcDbPolyline
 90
2
 70
0
 10
34.282147
 20
162.719044
 30
0.0
 10
34.282147
 20
165.080341
 30
0.0
  0
SPLINE
  5
13f
100
AcDbEntity
  8
4chan_mixer_panel
 62
7
100
AcDbSpline
 70
8
 71
3
 72
8
 73
4
 74
0
 40
0
 40
0
 40
0
 40
0
 40
1
 40
1
 40
1
 40
1
 10
38.115427
 20
245.447637
 30
0.0
 10
38.115427
 20
245.274460
 30
0.0
 10
38.010136
 20
245.134071
 30
0.0
 10
37.880254
 20
245.134071
 30
0.0
  0
SPLINE
  5
140
100
AcDbEntity
  8
4chan_mixer_panel
 62
7
100
AcDbSpline
 70
8
 71
3
 72
8
 73
4
 74
0
 40
0
 40
0
 40
0
 40
0
 40
1
 40
1
 40
1
 40
1
 10
37.880254
 20
245.134071
 30
0.0
 10
37.750371
 20
245.134071
 30
0.0
 10
37.645080
 20
245.274460
 30
0.0
 10
37.645080
 20
245.447637
 30
0.0
  0
SPLINE
  5
141
100
AcDbEntity
  8
4chan_mixer_panel
 62
7
100
AcDbSpline
 70
8
 71
3
 72
8
 73
4
 74
0
 40
0
 40
0
 40
0
 40
0
 40
1
 40
1
 40
1
 40
1
 10
37.645080
 20
245.447637
 30
0.0
 10
37.645080
 20
245.620814
 30
0.0
 10
37.750371
 20
245.761200
 30
0.0
 10
37.880254
 20
245.761200
 30
0.0
  0
SPLINE
  5
142
100
AcDbEntity
  8
4chan_mixer_panel
 62
7
100
AcDbSpline
 70
8
 71
3
 72
8
 73
4
 74
0
 40
0
 40
0
 40
0
 40
0
 40
1
 40
1
 40
1
 40
1
 10
37.880254
 20
245.761200
 30
0.0
 10
38.010136
 20
245.761200
 30
0.0
 10
38.115427
 20
245.620814
 30
0.0
 10
38.115427
 20
245.447637
 30
0.0
  0
LWPOLYLINE
  5
143
100
AcDbEntity
  8
4chan_mixer_panel
 62
7
100
AcDbPolyline
 90
5
 70
1
 10
36.450538
 20
242.536636
 30
0.0
 10
39.408222
 20
242.536636
 30
0.0
 10
39.408222
 20
203.066451
 30
0.0
 10
36.450538
 20
203.066451
 30
0.0
 10
36.450538
 20
242.536636
 30
0.0
  0
SPLINE
  5
144
100
AcDbEntity
  8
4chan_mixer_panel
 62
7
100
AcDbSpline
 70
8
 71
3
 72
8
 73
4
 74
0
 40
0
 40
0
 40
0
 40
0
 40
1
 40
1
 40
1
 40
1
 10
38.115427
 20
200.203888
 30
0.0
 10
38.115427
 20
200.030710
 30
0.0
 10
38.010136
 20
199.890322
 30
0.0
 10
37.880254
 20
199.890322
 30
0.0
  0
SPLINE
  5
145
100
AcDbEntity
  8
4chan_mixer_panel
 62
7
100
AcDbSpline
 70
8
 71
3
 72
8
 73
4
 74
0
 40
0
 40
0
 40
0
 40
0
 40
1
 40
1
 40
1
 40
1
 10
37.880254
 20
199.890322
 30
0.0
 10
37.750371
 20
199.890322
 30
0.0
 10
37.645080
 20
200.030710
 30
0.0
 10
37.645080
 20
200.203888
 30
0.0
  0
SPLINE
  5
146
100
AcDbEntity
  8
4chan_mixer_panel
 62
7
100
AcDbSpline
 70
8
 71
3
 72
8
 73
4
 74
0
 40
0
 40
0
 40
0
 40
0
 40
1
 40
1
 40
1
 40
1
 10
37.645080
 20
200.203888
 30
0.0
 10
37.645080
 20
200.377065
 30
0.0
 10
37.750371
 20
200.517451
 30
0.0
 10
37.880254
 20
200.517451
 30
0.0
  0
SPLINE
  5
147
100
AcDbEntity
  8
4chan_mixer_panel
 62
7
100
AcDbSpline
 70
8
 71
3
 72
8
 73
4
 74
0
 40
0
 40
0
 40
0
 40
0
 40
1
 40
1
 40
1
 40
1
 10
37.880254
 20
200.517451
 30
0.0
 10
38.010136
 20
200.517451
 30
0.0
 10
38.115427
 20
200.377065
 30
0.0
 10
38.115427
 20
200.203888
 30
0.0
  0
LWPOLYLINE
  5
148
100
AcDbEntity
  8
4chan_mixer_panel
 62
7
100
AcDbPolyline
 90
2
 70
1
 10
38.115427
 20
245.447637
 30
0.0
 10
38.115427
 20
245.447637
 30
0.0
  0
LWPOLYLINE
  5
149
100
AcDbEntity
  8
4chan_mixer_panel
 62
7
100
AcDbPolyline
 90
2
 70
1
 10
38.115427
 20
200.203888
 30
0.0
 10
38.115427
 20
200.203888
 30
0.0
  0
SPLINE
  5
14a
100
AcDbEntity
  8
4chan_mixer_panel
 62
7
100
AcDbSpline
 70
8
 71
3
 72
8
 73
4
 74
0
 40
0
 40
0
 40
0
 40
0
 40
1
 40
1
 40
1
 40
1
 10
53.778006
 20
245.447637
 30
0.0
 10
53.778006
 20
245.274460
 30
0.0
 10
53.672715
 20
245.134071
 30
0.0
 10
53.542832
 20
245.134071
 30
0.0
  0
SPLINE
  5
14b
100
AcDbEntity
  8
4chan_mixer_panel
 62
7
100
AcDbSpline
 70
8
 71
3
 72
8
 73
4
 74
0
 40
0
 40
0
 40
0
 40
0
 40
1
 40
1
 40
1
 40
1
 10
53.542832
 20
245.134071
 30
0.0
 10
53.412949
 20
245.134071
 30
0.0
 10
53.307659
 20
245.274460
 30
0.0
 10
53.307659
 20
245.447637
 30
0.0
  0
SPLINE
  5
14c
100
AcDbEntity
  8
4chan_mixer_panel
 62
7
100
AcDbSpline
 70
8
 71
3
 72
8
 73
4
 74
0
 40
0
 40
0
 40
0
 40
0
 40
1
 40
1
 40
1
 40
1
 10
53.307659
 20
245.447637
 30
0.0
 10
53.307659
 20
245.620814
 30
0.0
 10
53.412949
 20
245.761200
 30
0.0
 10
53.542832
 20
245.761200
 30
0.0
  0
SPLINE
  5
14d
100
AcDbEntity
  8
4chan_mixer_panel
 62
7
100
AcDbSpline
 70
8
 71
3
 72
8
 73
4
 74
0
 40
0
 40
0
 40
0
 40
0
 40
1
 40
1
 40
1
 40
1
 10
53.542832
 20
245.761200
 30
0.0
 10
53.672715
 20
245.761200
 30
0.0
 10
53.778006
 20
245.620814
 30
0.0
 10
53.778006
 20
245.447637
 30
0.0
  0
LWPOLYLINE
  5
14e
100
AcDbEntity
  8
4chan_mixer_panel
 62
7
100
AcDbPolyline
 90
5
 70
1
 10
52.113116
 20
242.536636
 30
0.0
 10
55.070800
 20
242.536636
 30
0.0
 10
55.070800
 20
203.066451
 30
0.0
 10
52.113116
 20
203.066451
 30
0.0
 10
52.113116
 20
242.536636
 30
0.0
  0
SPLINE
  5
14f
100
AcDbEntity
  8
4chan_mixer_panel
 62
7
100
AcDbSpline
 70
8
 71
3
 72
8
 73
4
 74
0
 40
0
 40
0
 40
0
 40
0
 40
1
 40
1
 40
1
 40
1
 10
53.778006
 20
200.203888
 30
0.0
 10
53.778006
 20
200.030710
 30
0.0
 10
53.672715
 20
199.890322
 30
0.0
 10
53.542832
 20
199.890322
 30
0.0
  0
SPLINE
  5
150
100
AcDbEntity
  8
4chan_mixer_panel
 62
7
100
AcDbSpline
 70
8
 71
3
 72
8
 73
4
 74
0
 40
0
 40
0
 40
0
 40
0
 40
1
 40
1
 40
1
 40
1
 10
53.542832
 20
199.890322
 30
0.0
 10
53.412949
 20
199.890322
 30
0.0
 10
53.307659
 20
200.030710
 30
0.0
 10
53.307659
 20
200.203888
 30
0.0
  0
SPLINE
  5
151
100
AcDbEntity
  8
4chan_mixer_panel
 62
7
100
AcDbSpline
 70
8
 71
3
 72
8
 73
4
 74
0
 40
0
 40
0
 40
0
 40
0
 40
1
 40
1
 40
1
 40
1
 10
53.307659
 20
200.203888
 30
0.0
 10
53.307659
 20
200.377065
 30
0.0
 10
53.412949
 20
200.517451
 30
0.0
 10
53.542832
 20
200.517451
 30
0.0
  0
SPLINE
  5
152
100
AcDbEntity
  8
4chan_mixer_panel
 62
7
100
AcDbSpline
 70
8
 71
3
 72
8
 73
4
 74
0
 40
0
 40
0
 40
0
 40
0
 40
1
 40
1
 40
1
 40
1
 10
53.542832
 20
200.517451
 30
0.0
 10
53.672715
 20
200.517451
 30
0.0
 10
53.778006
 20
200.377065
 30
0.0
 10
53.778006
 20
200.203888
 30
0.0
  0
LWPOLYLINE
  5
153
100
AcDbEntity
  8
4chan_mixer_panel
 62
7
100
AcDbPolyline
 90
2
 70
1
 10
53.778006
 20
245.447637
 30
0.0
 10
53.778006
 20
245.447637
 30
0.0
  0
LWPOLYLINE
  5
154
100
AcDbEntity
  8
4chan_mixer_panel
 62
7
100
AcDbPolyline
 90
2
 70
1
 10
53.778006
 20
200.203888
 30
0.0
 10
53.778006
 20
200.203888
 30
0.0
  0
SPLINE
  5
155
100
AcDbEntity
  8
4chan_mixer_panel
 62
7
100
AcDbSpline
 70
8
 71
3
 72
8
 73
4
 74
0
 40
0
 40
0
 40
0
 40
0
 40
1
 40
1
 40
1
 40
1
 10
69.440580
 20
245.447637
 30
0.0
 10
69.440580
 20
245.274460
 30
0.0
 10
69.335289
 20
245.134071
 30
0.0
 10
69.205407
 20
245.134071
 30
0.0
  0
SPLINE
  5
156
100
AcDbEntity
  8
4chan_mixer_panel
 62
7
100
AcDbSpline
 70
8
 71
3
 72
8
 73
4
 74
0
 40
0
 40
0
 40
0
 40
0
 40
1
 40
1
 40
1
 40
1
 10
69.205407
 20
245.134071
 30
0.0
 10
69.075524
 20
245.134071
 30
0.0
 10
68.970234
 20
245.274460
 30
0.0
 10
68.970234
 20
245.447637
 30
0.0
  0
SPLINE
  5
157
100
AcDbEntity
  8
4chan_mixer_panel
 62
7
100
AcDbSpline
 70
8
 71
3
 72
8
 73
4
 74
0
 40
0
 40
0
 40
0
 40
0
 40
1
 40
1
 40
1
 40
1
 10
68.970234
 20
245.447637
 30
0.0
 10
68.970234
 20
245.620814
 30
0.0
 10
69.075524
 20
245.761200
 30
0.0
 10
69.205407
 20
245.761200
 30
0.0
  0
SPLINE
  5
158
100
AcDbEntity
  8
4chan_mixer_panel
 62
7
100
AcDbSpline
 70
8
 71
3
 72
8
 73
4
 74
0
 40
0
 40
0
 40
0
 40
0
 40
1
 40
1
 40
1
 40
1
 10
69.205407
 20
245.761200
 30
0.0
 10
69.335289
 20
245.761200
 30
0.0
 10
69.440580
 20
245.620814
 30
0.0
 10
69.440580
 20
245.447637
 30
0.0
  0
LWPOLYLINE
  5
159
100
AcDbEntity
  8
4chan_mixer_panel
 62
7
100
AcDbPolyline
 90
5
 70
1
 10
67.775691
 20
242.536636
 30
0.0
 10
70.733375
 20
242.536636
 30
0.0
 10
70.733375
 20
203.066451
 30
0.0
 10
67.775691
 20
203.066451
 30
0.0
 10
67.775691
 20
242.536636
 30
0.0
  0
SPLINE
  5
15a
100
AcDbEntity
  8
4chan_mixer_panel
 62
7
100
AcDbSpline
 70
8
 71
3
 72
8
 73
4
 74
0
 40
0
 40
0
 40
0
 40
0
 40
1
 40
1
 40
1
 40
1
 10
69.440580
 20
200.203888
 30
0.0
 10
69.440580
 20
200.030710
 30
0.0
 10
69.335289
 20
199.890322
 30
0.0
 10
69.205407
 20
199.890322
 30
0.0
  0
SPLINE
  5
15b
100
AcDbEntity
  8
4chan_mixer_panel
 62
7
100
AcDbSpline
 70
8
 71
3
 72
8
 73
4
 74
0
 40
0
 40
0
 40
0
 40
0
 40
1
 40
1
 40
1
 40
1
 10
69.205407
 20
199.890322
 30
0.0
 10
69.075524
 20
199.890322
 30
0.0
 10
68.970234
 20
200.030710
 30
0.0
 10
68.970234
 20
200.203888
 30
0.0
  0
SPLINE
  5
15c
100
AcDbEntity
  8
4chan_mixer_panel
 62
7
100
AcDbSpline
 70
8
 71
3
 72
8
 73
4
 74
0
 40
0
 40
0
 40
0
 40
0
 40
1
 40
1
 40
1
 40
1
 10
68.970234
 20
200.203888
 30
0.0
 10
68.970234
 20
200.377065
 30
0.0
 10
69.075524
 20
200.517451
 30
0.0
 10
69.205407
 20
200.517451
 30
0.0
  0
SPLINE
  5
15d
100
AcDbEntity
  8
4chan_mixer_panel
 62
7
100
AcDbSpline
 70
8
 71
3
 72
8
 73
4
 74
0
 40
0
 40
0
 40
0
 40
0
 40
1
 40
1
 40
1
 40
1
 10
69.205407
 20
200.517451
 30
0.0
 10
69.335289
 20
200.517451
 30
0.0
 10
69.440580
 20
200.377065
 30
0.0
 10
69.440580
 20
200.203888
 30
0.0
  0
LWPOLYLINE
  5
15e
100
AcDbEntity
  8
4chan_mixer_panel
 62
7
100
AcDbPolyline
 90
2
 70
1
 10
69.440580
 20
245.447637
 30
0.0
 10
69.440580
 20
245.447637
 30
0.0
  0
LWPOLYLINE
  5
15f
100
AcDbEntity
  8
4chan_mixer_panel
 62
7
100
AcDbPolyline
 90
2
 70
1
 10
69.440580
 20
200.203888
 30
0.0
 10
69.440580
 20
200.203888
 30
0.0
  0
SPLINE
  5
160
100
AcDbEntity
  8
4chan_mixer_panel
 62
7
100
AcDbSpline
 70
8
 71
3
 72
8
 73
4
 74
0
 40
0
 40
0
 40
0
 40
0
 40
1
 40
1
 40
1
 40
1
 10
85.103145
 20
245.447637
 30
0.0
 10
85.103145
 20
245.274460
 30
0.0
 10
84.997854
 20
245.134071
 30
0.0
 10
84.867971
 20
245.134071
 30
0.0
  0
SPLINE
  5
161
100
AcDbEntity
  8
4chan_mixer_panel
 62
7
100
AcDbSpline
 70
8
 71
3
 72
8
 73
4
 74
0
 40
0
 40
0
 40
0
 40
0
 40
1
 40
1
 40
1
 40
1
 10
84.867971
 20
245.134071
 30
0.0
 10
84.738089
 20
245.134071
 30
0.0
 10
84.632798
 20
245.274460
 30
0.0
 10
84.632798
 20
245.447637
 30
0.0
  0
SPLINE
  5
162
100
AcDbEntity
  8
4chan_mixer_panel
 62
7
100
AcDbSpline
 70
8
 71
3
 72
8
 73
4
 74
0
 40
0
 40
0
 40
0
 40
0
 40
1
 40
1
 40
1
 40
1
 10
84.632798
 20
245.447637
 30
0.0
 10
84.632798
 20
245.620814
 30
0.0
 10
84.738089
 20
245.761200
 30
0.0
 10
84.867971
 20
245.761200
 30
0.0
  0
SPLINE
  5
163
100
AcDbEntity
  8
4chan_mixer_panel
 62
7
100
AcDbSpline
 70
8
 71
3
 72
8
 73
4
 74
0
 40
0
 40
0
 40
0
 40
0
 40
1
 40
1
 40
1
 40
1
 10
84.867971
 20
245.761200
 30
0.0
 10
84.997854
 20
245.761200
 30
0.0
 10
85.103145
 20
245.620814
 30
0.0
 10
85.103145
 20
245.447637
 30
0.0
  0
LWPOLYLINE
  5
164
100
AcDbEntity
  8
4chan_mixer_panel
 62
7
100
AcDbPolyline
 90
5
 70
1
 10
83.438256
 20
242.536636
 30
0.0
 10
86.395939
 20
242.536636
 30
0.0
 10
86.395939
 20
203.066451
 30
0.0
 10
83.438256
 20
203.066451
 30
0.0
 10
83.438256
 20
242.536636
 30
0.0
  0
SPLINE
  5
165
100
AcDbEntity
  8
4chan_mixer_panel
 62
7
100
AcDbSpline
 70
8
 71
3
 72
8
 73
4
 74
0
 40
0
 40
0
 40
0
 40
0
 40
1
 40
1
 40
1
 40
1
 10
85.103145
 20
200.203888
 30
0.0
 10
85.103145
 20
200.030710
 30
0.0
 10
84.997854
 20
199.890322
 30
0.0
 10
84.867971
 20
199.890322
 30
0.0
  0
SPLINE
  5
166
100
AcDbEntity
  8
4chan_mixer_panel
 62
7
100
AcDbSpline
 70
8
 71
3
 72
8
 73
4
 74
0
 40
0
 40
0
 40
0
 40
0
 40
1
 40
1
 40
1
 40
1
 10
84.867971
 20
199.890322
 30
0.0
 10
84.738089
 20
199.890322
 30
0.0
 10
84.632798
 20
200.030710
 30
0.0
 10
84.632798
 20
200.203888
 30
0.0
  0
SPLINE
  5
167
100
AcDbEntity
  8
4chan_mixer_panel
 62
7
100
AcDbSpline
 70
8
 71
3
 72
8
 73
4
 74
0
 40
0
 40
0
 40
0
 40
0
 40
1
 40
1
 40
1
 40
1
 10
84.632798
 20
200.203888
 30
0.0
 10
84.632798
 20
200.377065
 30
0.0
 10
84.738089
 20
200.517451
 30
0.0
 10
84.867971
 20
200.517451
 30
0.0
  0
SPLINE
  5
168
100
AcDbEntity
  8
4chan_mixer_panel
 62
7
100
AcDbSpline
 70
8
 71
3
 72
8
 73
4
 74
0
 40
0
 40
0
 40
0
 40
0
 40
1
 40
1
 40
1
 40
1
 10
84.867971
 20
200.517451
 30
0.0
 10
84.997854
 20
200.517451
 30
0.0
 10
85.103145
 20
200.377065
 30
0.0
 10
85.103145
 20
200.203888
 30
0.0
  0
LWPOLYLINE
  5
169
100
AcDbEntity
  8
4chan_mixer_panel
 62
7
100
AcDbPolyline
 90
2
 70
1
 10
85.103145
 20
245.447637
 30
0.0
 10
85.103145
 20
245.447637
 30
0.0
  0
LWPOLYLINE
  5
16a
100
AcDbEntity
  8
4chan_mixer_panel
 62
7
100
AcDbPolyline
 90
2
 70
1
 10
85.103145
 20
200.203888
 30
0.0
 10
85.103145
 20
200.203888
 30
0.0
  0
SPLINE
  5
16b
100
AcDbEntity
  8
4chan_mixer_panel
 62
7
100
AcDbSpline
 70
8
 71
3
 72
8
 73
4
 74
0
 40
0
 40
0
 40
0
 40
0
 40
1
 40
1
 40
1
 40
1
 10
100.765720
 20
245.447637
 30
0.0
 10
100.765720
 20
245.274460
 30
0.0
 10
100.660429
 20
245.134071
 30
0.0
 10
100.530546
 20
245.134071
 30
0.0
  0
SPLINE
  5
16c
100
AcDbEntity
  8
4chan_mixer_panel
 62
7
100
AcDbSpline
 70
8
 71
3
 72
8
 73
4
 74
0
 40
0
 40
0
 40
0
 40
0
 40
1
 40
1
 40
1
 40
1
 10
100.530546
 20
245.134071
 30
0.0
 10
100.400663
 20
245.134071
 30
0.0
 10
100.295373
 20
245.274460
 30
0.0
 10
100.295373
 20
245.447637
 30
0.0
  0
SPLINE
  5
16d
100
AcDbEntity
  8
4chan_mixer_panel
 62
7
100
AcDbSpline
 70
8
 71
3
 72
8
 73
4
 74
0
 40
0
 40
0
 40
0
 40
0
 40
1
 40
1
 40
1
 40
1
 10
100.295373
 20
245.447637
 30
0.0
 10
100.295373
 20
245.620814
 30
0.0
 10
100.400663
 20
245.761200
 30
0.0
 10
100.530546
 20
245.761200
 30
0.0
  0
SPLINE
  5
16e
100
AcDbEntity
  8
4chan_mixer_panel
 62
7
100
AcDbSpline
 70
8
 71
3
 72
8
 73
4
 74
0
 40
0
 40
0
 40
0
 40
0
 40
1
 40
1
 40
1
 40
1
 10
100.530546
 20
245.761200
 30
0.0
 10
100.660429
 20
245.761200
 30
0.0
 10
100.765720
 20
245.620814
 30
0.0
 10
100.765720
 20
245.447637
 30
0.0
  0
LWPOLYLINE
  5
16f
100
AcDbEntity
  8
4chan_mixer_panel
 62
7
100
AcDbPolyline
 90
5
 70
1
 10
99.100830
 20
242.536636
 30
0.0
 10
102.058514
 20
242.536636
 30
0.0
 10
102.058514
 20
203.066451
 30
0.0
 10
99.100830
 20
203.066451
 30
0.0
 10
99.100830
 20
242.536636
 30
0.0
  0
SPLINE
  5
170
100
AcDbEntity
  8
4chan_mixer_panel
 62
7
100
AcDbSpline
 70
8
 71
3
 72
8
 73
4
 74
0
 40
0
 40
0
 40
0
 40
0
 40
1
 40
1
 40
1
 40
1
 10
100.765720
 20
200.203888
 30
0.0
 10
100.765720
 20
200.030710
 30
0.0
 10
100.660429
 20
199.890322
 30
0.0
 10
100.530546
 20
199.890322
 30
0.0
  0
SPLINE
  5
171
100
AcDbEntity
  8
4chan_mixer_panel
 62
7
100
AcDbSpline
 70
8
 71
3
 72
8
 73
4
 74
0
 40
0
 40
0
 40
0
 40
0
 40
1
 40
1
 40
1
 40
1
 10
100.530546
 20
199.890322
 30
0.0
 10
100.400663
 20
199.890322
 30
0.0
 10
100.295373
 20
200.030710
 30
0.0
 10
100.295373
 20
200.203888
 30
0.0
  0
SPLINE
  5
172
100
AcDbEntity
  8
4chan_mixer_panel
 62
7
100
AcDbSpline
 70
8
 71
3
 72
8
 73
4
 74
0
 40
0
 40
0
 40
0
 40
0
 40
1
 40
1
 40
1
 40
1
 10
100.295373
 20
200.203888
 30
0.0
 10
100.295373
 20
200.377065
 30
0.0
 10
100.400663
 20
200.517451
 30
0.0
 10
100.530546
 20
200.517451
 30
0.0
  0
SPLINE
  5
173
100
AcDbEntity
  8
4chan_mixer_panel
 62
7
100
AcDbSpline
 70
8
 71
3
 72
8
 73
4
 74
0
 40
0
 40
0
 40
0
 40
0
 40
1
 40
1
 40
1
 40
1
 10
100.530546
 20
200.517451
 30
0.0
 10
100.660429
 20
200.517451
 30
0.0
 10
100.765720
 20
200.377065
 30
0.0
 10
100.765720
 20
200.203888
 30
0.0
  0
LWPOLYLINE
  5
174
100
AcDbEntity
  8
4chan_mixer_panel
 62
7
100
AcDbPolyline
 90
2
 70
1
 10
100.765720
 20
245.447637
 30
0.0
 10
100.765720
 20
245.447637
 30
0.0
  0
LWPOLYLINE
  5
175
100
AcDbEntity
  8
4chan_mixer_panel
 62
7
100
AcDbPolyline
 90
2
 70
1
 10
100.765720
 20
200.203888
 30
0.0
 10
100.765720
 20
200.203888
 30
0.0
  0
SPLINE
  5
176
100
AcDbEntity
  8
4chan_mixer_panel
 62
7
100
AcDbSpline
 70
8
 71
3
 72
8
 73
4
 74
0
 40
0
 40
0
 40
0
 40
0
 40
1
 40
1
 40
1
 40
1
 10
116.428294
 20
245.447637
 30
0.0
 10
116.428294
 20
245.274460
 30
0.0
 10
116.323003
 20
245.134071
 30
0.0
 10
116.193121
 20
245.134071
 30
0.0
  0
SPLINE
  5
177
100
AcDbEntity
  8
4chan_mixer_panel
 62
7
100
AcDbSpline
 70
8
 71
3
 72
8
 73
4
 74
0
 40
0
 40
0
 40
0
 40
0
 40
1
 40
1
 40
1
 40
1
 10
116.193121
 20
245.134071
 30
0.0
 10
116.063238
 20
245.134071
 30
0.0
 10
115.957948
 20
245.274460
 30
0.0
 10
115.957948
 20
245.447637
 30
0.0
  0
SPLINE
  5
178
100
AcDbEntity
  8
4chan_mixer_panel
 62
7
100
AcDbSpline
 70
8
 71
3
 72
8
 73
4
 74
0
 40
0
 40
0
 40
0
 40
0
 40
1
 40
1
 40
1
 40
1
 10
115.957948
 20
245.447637
 30
0.0
 10
115.957948
 20
245.620814
 30
0.0
 10
116.063238
 20
245.761200
 30
0.0
 10
116.193121
 20
245.761200
 30
0.0
  0
SPLINE
  5
179
100
AcDbEntity
  8
4chan_mixer_panel
 62
7
100
AcDbSpline
 70
8
 71
3
 72
8
 73
4
 74
0
 40
0
 40
0
 40
0
 40
0
 40
1
 40
1
 40
1
 40
1
 10
116.193121
 20
245.761200
 30
0.0
 10
116.323003
 20
245.761200
 30
0.0
 10
116.428294
 20
245.620814
 30
0.0
 10
116.428294
 20
245.447637
 30
0.0
  0
LWPOLYLINE
  5
17a
100
AcDbEntity
  8
4chan_mixer_panel
 62
7
100
AcDbPolyline
 90
5
 70
1
 10
114.763405
 20
242.536636
 30
0.0
 10
117.721089
 20
242.536636
 30
0.0
 10
117.721089
 20
203.066451
 30
0.0
 10
114.763405
 20
203.066451
 30
0.0
 10
114.763405
 20
242.536636
 30
0.0
  0
SPLINE
  5
17b
100
AcDbEntity
  8
4chan_mixer_panel
 62
7
100
AcDbSpline
 70
8
 71
3
 72
8
 73
4
 74
0
 40
0
 40
0
 40
0
 40
0
 40
1
 40
1
 40
1
 40
1
 10
116.428294
 20
200.203888
 30
0.0
 10
116.428294
 20
200.030710
 30
0.0
 10
116.323003
 20
199.890322
 30
0.0
 10
116.193121
 20
199.890322
 30
0.0
  0
SPLINE
  5
17c
100
AcDbEntity
  8
4chan_mixer_panel
 62
7
100
AcDbSpline
 70
8
 71
3
 72
8
 73
4
 74
0
 40
0
 40
0
 40
0
 40
0
 40
1
 40
1
 40
1
 40
1
 10
116.193121
 20
199.890322
 30
0.0
 10
116.063238
 20
199.890322
 30
0.0
 10
115.957948
 20
200.030710
 30
0.0
 10
115.957948
 20
200.203888
 30
0.0
  0
SPLINE
  5
17d
100
AcDbEntity
  8
4chan_mixer_panel
 62
7
100
AcDbSpline
 70
8
 71
3
 72
8
 73
4
 74
0
 40
0
 40
0
 40
0
 40
0
 40
1
 40
1
 40
1
 40
1
 10
115.957948
 20
200.203888
 30
0.0
 10
115.957948
 20
200.377065
 30
0.0
 10
116.063238
 20
200.517451
 30
0.0
 10
116.193121
 20
200.517451
 30
0.0
  0
SPLINE
  5
17e
100
AcDbEntity
  8
4chan_mixer_panel
 62
7
100
AcDbSpline
 70
8
 71
3
 72
8
 73
4
 74
0
 40
0
 40
0
 40
0
 40
0
 40
1
 40
1
 40
1
 40
1
 10
116.193121
 20
200.517451
 30
0.0
 10
116.323003
 20
200.517451
 30
0.0
 10
116.428294
 20
200.377065
 30
0.0
 10
116.428294
 20
200.203888
 30
0.0
  0
LWPOLYLINE
  5
17f
100
AcDbEntity
  8
4chan_mixer_panel
 62
7
100
AcDbPolyline
 90
2
 70
1
 10
116.428294
 20
245.447637
 30
0.0
 10
116.428294
 20
245.447637
 30
0.0
  0
LWPOLYLINE
  5
180
100
AcDbEntity
  8
4chan_mixer_panel
 62
7
100
AcDbPolyline
 90
2
 70
1
 10
116.428294
 20
200.203888
 30
0.0
 10
116.428294
 20
200.203888
 30
0.0
  0
SPLINE
  5
181
100
AcDbEntity
  8
4chan_mixer_panel
 62
7
100
AcDbSpline
 70
8
 71
3
 72
8
 73
4
 74
0
 40
0
 40
0
 40
0
 40
0
 40
1
 40
1
 40
1
 40
1
 10
132.090873
 20
245.447637
 30
0.0
 10
132.090873
 20
245.274460
 30
0.0
 10
131.985582
 20
245.134071
 30
0.0
 10
131.855699
 20
245.134071
 30
0.0
  0
SPLINE
  5
182
100
AcDbEntity
  8
4chan_mixer_panel
 62
7
100
AcDbSpline
 70
8
 71
3
 72
8
 73
4
 74
0
 40
0
 40
0
 40
0
 40
0
 40
1
 40
1
 40
1
 40
1
 10
131.855699
 20
245.134071
 30
0.0
 10
131.725817
 20
245.134071
 30
0.0
 10
131.620526
 20
245.274460
 30
0.0
 10
131.620526
 20
245.447637
 30
0.0
  0
SPLINE
  5
183
100
AcDbEntity
  8
4chan_mixer_panel
 62
7
100
AcDbSpline
 70
8
 71
3
 72
8
 73
4
 74
0
 40
0
 40
0
 40
0
 40
0
 40
1
 40
1
 40
1
 40
1
 10
131.620526
 20
245.447637
 30
0.0
 10
131.620526
 20
245.620814
 30
0.0
 10
131.725817
 20
245.761200
 30
0.0
 10
131.855699
 20
245.761200
 30
0.0
  0
SPLINE
  5
184
100
AcDbEntity
  8
4chan_mixer_panel
 62
7
100
AcDbSpline
 70
8
 71
3
 72
8
 73
4
 74
0
 40
0
 40
0
 40
0
 40
0
 40
1
 40
1
 40
1
 40
1
 10
131.855699
 20
245.761200
 30
0.0
 10
131.985582
 20
245.761200
 30
0.0
 10
132.090873
 20
245.620814
 30
0.0
 10
132.090873
 20
245.447637
 30
0.0
  0
LWPOLYLINE
  5
185
100
AcDbEntity
  8
4chan_mixer_panel
 62
7
100
AcDbPolyline
 90
5
 70
1
 10
130.425984
 20
242.536636
 30
0.0
 10
133.383667
 20
242.536636
 30
0.0
 10
133.383667
 20
203.066451
 30
0.0
 10
130.425984
 20
203.066451
 30
0.0
 10
130.425984
 20
242.536636
 30
0.0
  0
SPLINE
  5
186
100
AcDbEntity
  8
4chan_mixer_panel
 62
7
100
AcDbSpline
 70
8
 71
3
 72
8
 73
4
 74
0
 40
0
 40
0
 40
0
 40
0
 40
1
 40
1
 40
1
 40
1
 10
132.090873
 20
200.203888
 30
0.0
 10
132.090873
 20
200.030710
 30
0.0
 10
131.985582
 20
199.890322
 30
0.0
 10
131.855699
 20
199.890322
 30
0.0
  0
SPLINE
  5
187
100
AcDbEntity
  8
4chan_mixer_panel
 62
7
100
AcDbSpline
 70
8
 71
3
 72
8
 73
4
 74
0
 40
0
 40
0
 40
0
 40
0
 40
1
 40
1
 40
1
 40
1
 10
131.855699
 20
199.890322
 30
0.0
 10
131.725817
 20
199.890322
 30
0.0
 10
131.620526
 20
200.030710
 30
0.0
 10
131.620526
 20
200.203888
 30
0.0
  0
SPLINE
  5
188
100
AcDbEntity
  8
4chan_mixer_panel
 62
7
100
AcDbSpline
 70
8
 71
3
 72
8
 73
4
 74
0
 40
0
 40
0
 40
0
 40
0
 40
1
 40
1
 40
1
 40
1
 10
131.620526
 20
200.203888
 30
0.0
 10
131.620526
 20
200.377065
 30
0.0
 10
131.725817
 20
200.517451
 30
0.0
 10
131.855699
 20
200.517451
 30
0.0
  0
SPLINE
  5
189
100
AcDbEntity
  8
4chan_mixer_panel
 62
7
100
AcDbSpline
 70
8
 71
3
 72
8
 73
4
 74
0
 40
0
 40
0
 40
0
 40
0
 40
1
 40
1
 40
1
 40
1
 10
131.855699
 20
200.517451
 30
0.0
 10
131.985582
 20
200.517451
 30
0.0
 10
132.090873
 20
200.377065
 30
0.0
 10
132.090873
 20
200.203888
 30
0.0
  0
LWPOLYLINE
  5
18a
100
AcDbEntity
  8
4chan_mixer_panel
 62
7
100
AcDbPolyline
 90
2
 70
1
 10
132.090873
 20
245.447637
 30
0.0
 10
132.090873
 20
245.447637
 30
0.0
  0
LWPOLYLINE
  5
18b
100
AcDbEntity
  8
4chan_mixer_panel
 62
7
100
AcDbPolyline
 90
2
 70
1
 10
132.090873
 20
200.203888
 30
0.0
 10
132.090873
 20
200.203888
 30
0.0
  0
SPLINE
  5
18c
100
AcDbEntity
  8
4chan_mixer_panel
 62
7
100
AcDbSpline
 70
8
 71
3
 72
8
 73
4
 74
0
 40
0
 40
0
 40
0
 40
0
 40
1
 40
1
 40
1
 40
1
 10
147.753448
 20
245.447637
 30
0.0
 10
147.753448
 20
245.274460
 30
0.0
 10
147.648157
 20
245.134071
 30
0.0
 10
147.518274
 20
245.134071
 30
0.0
  0
SPLINE
  5
18d
100
AcDbEntity
  8
4chan_mixer_panel
 62
7
100
AcDbSpline
 70
8
 71
3
 72
8
 73
4
 74
0
 40
0
 40
0
 40
0
 40
0
 40
1
 40
1
 40
1
 40
1
 10
147.518274
 20
245.134071
 30
0.0
 10
147.388391
 20
245.134071
 30
0.0
 10
147.283101
 20
245.274460
 30
0.0
 10
147.283101
 20
245.447637
 30
0.0
  0
SPLINE
  5
18e
100
AcDbEntity
  8
4chan_mixer_panel
 62
7
100
AcDbSpline
 70
8
 71
3
 72
8
 73
4
 74
0
 40
0
 40
0
 40
0
 40
0
 40
1
 40
1
 40
1
 40
1
 10
147.283101
 20
245.447637
 30
0.0
 10
147.283101
 20
245.620814
 30
0.0
 10
147.388391
 20
245.761200
 30
0.0
 10
147.518274
 20
245.761200
 30
0.0
  0
SPLINE
  5
18f
100
AcDbEntity
  8
4chan_mixer_panel
 62
7
100
AcDbSpline
 70
8
 71
3
 72
8
 73
4
 74
0
 40
0
 40
0
 40
0
 40
0
 40
1
 40
1
 40
1
 40
1
 10
147.518274
 20
245.761200
 30
0.0
 10
147.648157
 20
245.761200
 30
0.0
 10
147.753448
 20
245.620814
 30
0.0
 10
147.753448
 20
245.447637
 30
0.0
  0
LWPOLYLINE
  5
190
100
AcDbEntity
  8
4chan_mixer_panel
 62
7
100
AcDbPolyline
 90
5
 70
1
 10
146.088559
 20
242.536636
 30
0.0
 10
149.046242
 20
242.536636
 30
0.0
 10
149.046242
 20
203.066451
 30
0.0
 10
146.088559
 20
203.066451
 30
0.0
 10
146.088559
 20
242.536636
 30
0.0
  0
SPLINE
  5
191
100
AcDbEntity
  8
4chan_mixer_panel
 62
7
100
AcDbSpline
 70
8
 71
3
 72
8
 73
4
 74
0
 40
0
 40
0
 40
0
 40
0
 40
1
 40
1
 40
1
 40
1
 10
147.753448
 20
200.203888
 30
0.0
 10
147.753448
 20
200.030710
 30
0.0
 10
147.648157
 20
199.890322
 30
0.0
 10
147.518274
 20
199.890322
 30
0.0
  0
SPLINE
  5
192
100
AcDbEntity
  8
4chan_mixer_panel
 62
7
100
AcDbSpline
 70
8
 71
3
 72
8
 73
4
 74
0
 40
0
 40
0
 40
0
 40
0
 40
1
 40
1
 40
1
 40
1
 10
147.518274
 20
199.890322
 30
0.0
 10
147.388391
 20
199.890322
 30
0.0
 10
147.283101
 20
200.030710
 30
0.0
 10
147.283101
 20
200.203888
 30
0.0
  0
SPLINE
  5
193
100
AcDbEntity
  8
4chan_mixer_panel
 62
7
100
AcDbSpline
 70
8
 71
3
 72
8
 73
4
 74
0
 40
0
 40
0
 40
0
 40
0
 40
1
 40
1
 40
1
 40
1
 10
147.283101
 20
200.203888
 30
0.0
 10
147.283101
 20
200.377065
 30
0.0
 10
147.388391
 20
200.517451
 30
0.0
 10
147.518274
 20
200.517451
 30
0.0
  0
SPLINE
  5
194
100
AcDbEntity
  8
4chan_mixer_panel
 62
7
100
AcDbSpline
 70
8
 71
3
 72
8
 73
4
 74
0
 40
0
 40
0
 40
0
 40
0
 40
1
 40
1
 40
1
 40
1
 10
147.518274
 20
200.517451
 30
0.0
 10
147.648157
 20
200.517451
 30
0.0
 10
147.753448
 20
200.377065
 30
0.0
 10
147.753448
 20
200.203888
 30
0.0
  0
LWPOLYLINE
  5
195
100
AcDbEntity
  8
4chan_mixer_panel
 62
7
100
AcDbPolyline
 90
2
 70
1
 10
147.753448
 20
245.447637
 30
0.0
 10
147.753448
 20
245.447637
 30
0.0
  0
LWPOLYLINE
  5
196
100
AcDbEntity
  8
4chan_mixer_panel
 62
7
100
AcDbPolyline
 90
2
 70
1
 10
147.753448
 20
200.203888
 30
0.0
 10
147.753448
 20
200.203888
 30
0.0
  0
SPLINE
  5
197
100
AcDbEntity
  8
4chan_mixer_panel
 62
7
100
AcDbSpline
 70
8
 71
3
 72
8
 73
4
 74
0
 40
0
 40
0
 40
0
 40
0
 40
1
 40
1
 40
1
 40
1
 10
163.416022
 20
245.447637
 30
0.0
 10
163.416022
 20
245.274460
 30
0.0
 10
163.310732
 20
245.134071
 30
0.0
 10
163.180849
 20
245.134071
 30
0.0
  0
SPLINE
  5
198
100
AcDbEntity
  8
4chan_mixer_panel
 62
7
100
AcDbSpline
 70
8
 71
3
 72
8
 73
4
 74
0
 40
0
 40
0
 40
0
 40
0
 40
1
 40
1
 40
1
 40
1
 10
163.180849
 20
245.134071
 30
0.0
 10
163.050966
 20
245.134071
 30
0.0
 10
162.945676
 20
245.274460
 30
0.0
 10
162.945676
 20
245.447637
 30
0.0
  0
SPLINE
  5
199
100
AcDbEntity
  8
4chan_mixer_panel
 62
7
100
AcDbSpline
 70
8
 71
3
 72
8
 73
4
 74
0
 40
0
 40
0
 40
0
 40
0
 40
1
 40
1
 40
1
 40
1
 10
162.945676
 20
245.447637
 30
0.0
 10
162.945676
 20
245.620814
 30
0.0
 10
163.050966
 20
245.761200
 30
0.0
 10
163.180849
 20
245.761200
 30
0.0
  0
SPLINE
  5
19a
100
AcDbEntity
  8
4chan_mixer_panel
 62
7
100
AcDbSpline
 70
8
 71
3
 72
8
 73
4
 74
0
 40
0
 40
0
 40
0
 40
0
 40
1
 40
1
 40
1
 40
1
 10
163.180849
 20
245.761200
 30
0.0
 10
163.310732
 20
245.761200
 30
0.0
 10
163.416022
 20
245.620814
 30
0.0
 10
163.416022
 20
245.447637
 30
0.0
  0
LWPOLYLINE
  5
19b
100
AcDbEntity
  8
4chan_mixer_panel
 62
7
100
AcDbPolyline
 90
5
 70
1
 10
161.751133
 20
242.536636
 30
0.0
 10
164.708817
 20
242.536636
 30
0.0
 10
164.708817
 20
203.066451
 30
0.0
 10
161.751133
 20
203.066451
 30
0.0
 10
161.751133
 20
242.536636
 30
0.0
  0
SPLINE
  5
19c
100
AcDbEntity
  8
4chan_mixer_panel
 62
7
100
AcDbSpline
 70
8
 71
3
 72
8
 73
4
 74
0
 40
0
 40
0
 40
0
 40
0
 40
1
 40
1
 40
1
 40
1
 10
163.416022
 20
200.203888
 30
0.0
 10
163.416022
 20
200.030710
 30
0.0
 10
163.310732
 20
199.890322
 30
0.0
 10
163.180849
 20
199.890322
 30
0.0
  0
SPLINE
  5
19d
100
AcDbEntity
  8
4chan_mixer_panel
 62
7
100
AcDbSpline
 70
8
 71
3
 72
8
 73
4
 74
0
 40
0
 40
0
 40
0
 40
0
 40
1
 40
1
 40
1
 40
1
 10
163.180849
 20
199.890322
 30
0.0
 10
163.050966
 20
199.890322
 30
0.0
 10
162.945676
 20
200.030710
 30
0.0
 10
162.945676
 20
200.203888
 30
0.0
  0
SPLINE
  5
19e
100
AcDbEntity
  8
4chan_mixer_panel
 62
7
100
AcDbSpline
 70
8
 71
3
 72
8
 73
4
 74
0
 40
0
 40
0
 40
0
 40
0
 40
1
 40
1
 40
1
 40
1
 10
162.945676
 20
200.203888
 30
0.0
 10
162.945676
 20
200.377065
 30
0.0
 10
163.050966
 20
200.517451
 30
0.0
 10
163.180849
 20
200.517451
 30
0.0
  0
SPLINE
  5
19f
100
AcDbEntity
  8
4chan_mixer_panel
 62
7
100
AcDbSpline
 70
8
 71
3
 72
8
 73
4
 74
0
 40
0
 40
0
 40
0
 40
0
 40
1
 40
1
 40
1
 40
1
 10
163.180849
 20
200.517451
 30
0.0
 10
163.310732
 20
200.517451
 30
0.0
 10
163.416022
 20
200.377065
 30
0.0
 10
163.416022
 20
200.203888
 30
0.0
  0
LWPOLYLINE
  5
1a0
100
AcDbEntity
  8
4chan_mixer_panel
 62
7
100
AcDbPolyline
 90
2
 70
1
 10
163.416022
 20
245.447637
 30
0.0
 10
163.416022
 20
245.447637
 30
0.0
  0
LWPOLYLINE
  5
1a1
100
AcDbEntity
  8
4chan_mixer_panel
 62
7
100
AcDbPolyline
 90
2
 70
1
 10
163.416022
 20
200.203888
 30
0.0
 10
163.416022
 20
200.203888
 30
0.0
  0
SPLINE
  5
1a2
100
AcDbEntity
  8
4chan_mixer_panel
 62
7
100
AcDbSpline
 70
8
 71
3
 72
8
 73
4
 74
0
 40
0
 40
0
 40
0
 40
0
 40
1
 40
1
 40
1
 40
1
 10
179.078604
 20
245.447637
 30
0.0
 10
179.078604
 20
245.274460
 30
0.0
 10
178.973313
 20
245.134071
 30
0.0
 10
178.843431
 20
245.134071
 30
0.0
  0
SPLINE
  5
1a3
100
AcDbEntity
  8
4chan_mixer_panel
 62
7
100
AcDbSpline
 70
8
 71
3
 72
8
 73
4
 74
0
 40
0
 40
0
 40
0
 40
0
 40
1
 40
1
 40
1
 40
1
 10
178.843431
 20
245.134071
 30
0.0
 10
178.713548
 20
245.134071
 30
0.0
 10
178.608258
 20
245.274460
 30
0.0
 10
178.608258
 20
245.447637
 30
0.0
  0
SPLINE
  5
1a4
100
AcDbEntity
  8
4chan_mixer_panel
 62
7
100
AcDbSpline
 70
8
 71
3
 72
8
 73
4
 74
0
 40
0
 40
0
 40
0
 40
0
 40
1
 40
1
 40
1
 40
1
 10
178.608258
 20
245.447637
 30
0.0
 10
178.608258
 20
245.620814
 30
0.0
 10
178.713548
 20
245.761200
 30
0.0
 10
178.843431
 20
245.761200
 30
0.0
  0
SPLINE
  5
1a5
100
AcDbEntity
  8
4chan_mixer_panel
 62
7
100
AcDbSpline
 70
8
 71
3
 72
8
 73
4
 74
0
 40
0
 40
0
 40
0
 40
0
 40
1
 40
1
 40
1
 40
1
 10
178.843431
 20
245.761200
 30
0.0
 10
178.973313
 20
245.761200
 30
0.0
 10
179.078604
 20
245.620814
 30
0.0
 10
179.078604
 20
245.447637
 30
0.0
  0
LWPOLYLINE
  5
1a6
100
AcDbEntity
  8
4chan_mixer_panel
 62
7
100
AcDbPolyline
 90
5
 70
1
 10
177.413715
 20
242.536636
 30
0.0
 10
180.371399
 20
242.536636
 30
0.0
 10
180.371399
 20
203.066451
 30
0.0
 10
177.413715
 20
203.066451
 30
0.0
 10
177.413715
 20
242.536636
 30
0.0
  0
SPLINE
  5
1a7
100
AcDbEntity
  8
4chan_mixer_panel
 62
7
100
AcDbSpline
 70
8
 71
3
 72
8
 73
4
 74
0
 40
0
 40
0
 40
0
 40
0
 40
1
 40
1
 40
1
 40
1
 10
179.078604
 20
200.203888
 30
0.0
 10
179.078604
 20
200.030710
 30
0.0
 10
178.973313
 20
199.890322
 30
0.0
 10
178.843431
 20
199.890322
 30
0.0
  0
SPLINE
  5
1a8
100
AcDbEntity
  8
4chan_mixer_panel
 62
7
100
AcDbSpline
 70
8
 71
3
 72
8
 73
4
 74
0
 40
0
 40
0
 40
0
 40
0
 40
1
 40
1
 40
1
 40
1
 10
178.843431
 20
199.890322
 30
0.0
 10
178.713548
 20
199.890322
 30
0.0
 10
178.608258
 20
200.030710
 30
0.0
 10
178.608258
 20
200.203888
 30
0.0
  0
SPLINE
  5
1a9
100
AcDbEntity
  8
4chan_mixer_panel
 62
7
100
AcDbSpline
 70
8
 71
3
 72
8
 73
4
 74
0
 40
0
 40
0
 40
0
 40
0
 40
1
 40
1
 40
1
 40
1
 10
178.608258
 20
200.203888
 30
0.0
 10
178.608258
 20
200.377065
 30
0.0
 10
178.713548
 20
200.517451
 30
0.0
 10
178.843431
 20
200.517451
 30
0.0
  0
SPLINE
  5
1aa
100
AcDbEntity
  8
4chan_mixer_panel
 62
7
100
AcDbSpline
 70
8
 71
3
 72
8
 73
4
 74
0
 40
0
 40
0
 40
0
 40
0
 40
1
 40
1
 40
1
 40
1
 10
178.843431
 20
200.517451
 30
0.0
 10
178.973313
 20
200.517451
 30
0.0
 10
179.078604
 20
200.377065
 30
0.0
 10
179.078604
 20
200.203888
 30
0.0
  0
LWPOLYLINE
  5
1ab
100
AcDbEntity
  8
4chan_mixer_panel
 62
7
100
AcDbPolyline
 90
2
 70
1
 10
179.078604
 20
245.447637
 30
0.0
 10
179.078604
 20
245.447637
 30
0.0
  0
LWPOLYLINE
  5
1ac
100
AcDbEntity
  8
4chan_mixer_panel
 62
7
100
AcDbPolyline
 90
2
 70
1
 10
179.078604
 20
200.203888
 30
0.0
 10
179.078604
 20
200.203888
 30
0.0
  0
LWPOLYLINE
  5
1ad
100
AcDbEntity
  8
4chan_mixer_panel
 62
7
100
AcDbPolyline
 90
2
 70
0
 10
197.434983
 20
270.343943
 30
0.0
 10
197.434983
 20
141.939334
 30
0.0
  0
LWPOLYLINE
  5
1ae
100
AcDbEntity
  8
4chan_mixer_panel
 62
7
100
AcDbPolyline
 90
3
 70
0
 10
18.970645
 20
141.939333
 30
0.0
 10
18.970645
 20
270.343945
 30
0.0
 10
197.434984
 20
270.343945
 30
0.0
  0
SPLINE
  5
1af
100
AcDbEntity
  8
4chan_mixer_panel
 62
7
100
AcDbSpline
 70
8
 71
3
 72
8
 73
4
 74
0
 40
0
 40
0
 40
0
 40
0
 40
1
 40
1
 40
1
 40
1
 10
91.578317
 20
164.295790
 30
0.0
 10
91.578317
 20
163.428773
 30
0.0
 10
90.874507
 20
162.725916
 30
0.0
 10
90.006313
 20
162.725916
 30
0.0
  0
SPLINE
  5
1b0
100
AcDbEntity
  8
4chan_mixer_panel
 62
7
100
AcDbSpline
 70
8
 71
3
 72
8
 73
4
 74
0
 40
0
 40
0
 40
0
 40
0
 40
1
 40
1
 40
1
 40
1
 10
90.006313
 20
162.725916
 30
0.0
 10
89.138120
 20
162.725916
 30
0.0
 10
88.434310
 20
163.428773
 30
0.0
 10
88.434310
 20
164.295790
 30
0.0
  0
SPLINE
  5
1b1
100
AcDbEntity
  8
4chan_mixer_panel
 62
7
100
AcDbSpline
 70
8
 71
3
 72
8
 73
4
 74
0
 40
0
 40
0
 40
0
 40
0
 40
1
 40
1
 40
1
 40
1
 10
88.434310
 20
164.295790
 30
0.0
 10
88.434310
 20
165.162808
 30
0.0
 10
89.138120
 20
165.865665
 30
0.0
 10
90.006313
 20
165.865665
 30
0.0
  0
SPLINE
  5
1b2
100
AcDbEntity
  8
4chan_mixer_panel
 62
7
100
AcDbSpline
 70
8
 71
3
 72
8
 73
4
 74
0
 40
0
 40
0
 40
0
 40
0
 40
1
 40
1
 40
1
 40
1
 10
90.006313
 20
165.865665
 30
0.0
 10
90.874507
 20
165.865665
 30
0.0
 10
91.578317
 20
165.162808
 30
0.0
 10
91.578317
 20
164.295790
 30
0.0
  0
LWPOLYLINE
  5
1b3
100
AcDbEntity
  8
4chan_mixer_panel
 62
7
100
AcDbPolyline
 90
2
 70
0
 10
197.434984
 20
141.939333
 30
0.0
 10
18.970645
 20
141.939333
 30
0.0
  0
SPLINE
  5
1b4
100
AcDbEntity
  8
4chan_mixer_panel
 62
7
100
AcDbSpline
 70
8
 71
3
 72
8
 73
4
 74
0
 40
0
 40
0
 40
0
 40
0
 40
1
 40
1
 40
1
 40
1
 10
113.885867
 20
164.295790
 30
0.0
 10
113.885867
 20
163.428773
 30
0.0
 10
113.182057
 20
162.725916
 30
0.0
 10
112.313863
 20
162.725916
 30
0.0
  0
SPLINE
  5
1b5
100
AcDbEntity
  8
4chan_mixer_panel
 62
7
100
AcDbSpline
 70
8
 71
3
 72
8
 73
4
 74
0
 40
0
 40
0
 40
0
 40
0
 40
1
 40
1
 40
1
 40
1
 10
112.313863
 20
162.725916
 30
0.0
 10
111.445670
 20
162.725916
 30
0.0
 10
110.741860
 20
163.428773
 30
0.0
 10
110.741860
 20
164.295790
 30
0.0
  0
SPLINE
  5
1b6
100
AcDbEntity
  8
4chan_mixer_panel
 62
7
100
AcDbSpline
 70
8
 71
3
 72
8
 73
4
 74
0
 40
0
 40
0
 40
0
 40
0
 40
1
 40
1
 40
1
 40
1
 10
110.741860
 20
164.295790
 30
0.0
 10
110.741860
 20
165.162808
 30
0.0
 10
111.445670
 20
165.865665
 30
0.0
 10
112.313863
 20
165.865665
 30
0.0
  0
SPLINE
  5
1b7
100
AcDbEntity
  8
4chan_mixer_panel
 62
7
100
AcDbSpline
 70
8
 71
3
 72
8
 73
4
 74
0
 40
0
 40
0
 40
0
 40
0
 40
1
 40
1
 40
1
 40
1
 10
112.313863
 20
165.865665
 30
0.0
 10
113.182057
 20
165.865665
 30
0.0
 10
113.885867
 20
165.162808
 30
0.0
 10
113.885867
 20
164.295790
 30
0.0
  0
LWPOLYLINE
  5
1b8
100
AcDbEntity
  8
4chan_mixer_panel
 62
7
100
AcDbPolyline
 90
2
 70
1
 10
91.578317
 20
164.295790
 30
0.0
 10
91.578317
 20
164.295790
 30
0.0
  0
SPLINE
  5
1b9
100
AcDbEntity
  8
4chan_mixer_panel
 62
7
100
AcDbSpline
 70
8
 71
3
 72
8
 73
4
 74
0
 40
0
 40
0
 40
0
 40
0
 40
1
 40
1
 40
1
 40
1
 10
108.621728
 20
164.295789
 30
0.0
 10
108.621728
 20
160.174857
 30
0.0
 10
105.281037
 20
156.834184
 30
0.0
 10
101.160084
 20
156.834184
 30
0.0
  0
SPLINE
  5
1ba
100
AcDbEntity
  8
4chan_mixer_panel
 62
7
100
AcDbSpline
 70
8
 71
3
 72
8
 73
4
 74
0
 40
0
 40
0
 40
0
 40
0
 40
1
 40
1
 40
1
 40
1
 10
101.160084
 20
156.834184
 30
0.0
 10
97.039135
 20
156.834184
 30
0.0
 10
93.698443
 20
160.174857
 30
0.0
 10
93.698443
 20
164.295789
 30
0.0
  0
SPLINE
  5
1bb
100
AcDbEntity
  8
4chan_mixer_panel
 62
7
100
AcDbSpline
 70
8
 71
3
 72
8
 73
4
 74
0
 40
0
 40
0
 40
0
 40
0
 40
1
 40
1
 40
1
 40
1
 10
93.698443
 20
164.295789
 30
0.0
 10
93.698443
 20
168.416720
 30
0.0
 10
97.039135
 20
171.757396
 30
0.0
 10
101.160084
 20
171.757396
 30
0.0
  0
SPLINE
  5
1bc
100
AcDbEntity
  8
4chan_mixer_panel
 62
7
100
AcDbSpline
 70
8
 71
3
 72
8
 73
4
 74
0
 40
0
 40
0
 40
0
 40
0
 40
1
 40
1
 40
1
 40
1
 10
101.160084
 20
171.757396
 30
0.0
 10
105.281037
 20
171.757396
 30
0.0
 10
108.621728
 20
168.416720
 30
0.0
 10
108.621728
 20
164.295789
 30
0.0
  0
LWPOLYLINE
  5
1bd
100
AcDbEntity
  8
4chan_mixer_panel
 62
7
100
AcDbPolyline
 90
2
 70
1
 10
113.885867
 20
164.295790
 30
0.0
 10
113.885867
 20
164.295790
 30
0.0
  0
SPLINE
  5
1be
100
AcDbEntity
  8
4chan_mixer_panel
 62
7
100
AcDbSpline
 70
8
 71
3
 72
8
 73
4
 74
0
 40
0
 40
0
 40
0
 40
0
 40
1
 40
1
 40
1
 40
1
 10
174.528873
 20
163.930596
 30
0.0
 10
174.528873
 20
165.701568
 30
0.0
 10
175.709518
 20
166.882217
 30
0.0
 10
177.480482
 20
166.882217
 30
0.0
  0
SPLINE
  5
1bf
100
AcDbEntity
  8
4chan_mixer_panel
 62
7
100
AcDbSpline
 70
8
 71
3
 72
8
 73
4
 74
0
 40
0
 40
0
 40
0
 40
0
 40
1
 40
1
 40
1
 40
1
 10
177.480482
 20
166.882217
 30
0.0
 10
179.251447
 20
166.882217
 30
0.0
 10
180.432089
 20
165.701568
 30
0.0
 10
180.432089
 20
163.930596
 30
0.0
  0
SPLINE
  5
1c0
100
AcDbEntity
  8
4chan_mixer_panel
 62
7
100
AcDbSpline
 70
8
 71
3
 72
8
 73
4
 74
0
 40
0
 40
0
 40
0
 40
0
 40
1
 40
1
 40
1
 40
1
 10
180.432089
 20
163.930596
 30
0.0
 10
180.432089
 20
162.159623
 30
0.0
 10
179.251447
 20
160.978975
 30
0.0
 10
177.480482
 20
160.978975
 30
0.0
  0
SPLINE
  5
1c1
100
AcDbEntity
  8
4chan_mixer_panel
 62
7
100
AcDbSpline
 70
8
 71
3
 72
8
 73
4
 74
0
 40
0
 40
0
 40
0
 40
0
 40
1
 40
1
 40
1
 40
1
 10
177.480482
 20
160.978975
 30
0.0
 10
175.709518
 20
160.978975
 30
0.0
 10
174.528873
 20
162.159623
 30
0.0
 10
174.528873
 20
163.930596
 30
0.0
  0
LWPOLYLINE
  5
1c2
100
AcDbEntity
  8
4chan_mixer_panel
 62
7
100
AcDbPolyline
 90
2
 70
1
 10
108.621728
 20
164.295789
 30
0.0
 10
108.621728
 20
164.295789
 30
0.0
  0
LWPOLYLINE
  5
1c3
100
AcDbEntity
  8
4chan_mixer_panel
 62
7
100
AcDbPolyline
 90
2
 70
0
 10
176.299837
 20
163.930596
 30
0.0
 10
178.661125
 20
163.930596
 30
0.0
  0
SPLINE
  5
1c4
100
AcDbEntity
  8
4chan_mixer_panel
 62
7
100
AcDbSpline
 70
8
 71
3
 72
8
 73
4
 74
0
 40
0
 40
0
 40
0
 40
0
 40
1
 40
1
 40
1
 40
1
 10
127.847231
 20
164.295790
 30
0.0
 10
127.847231
 20
163.428773
 30
0.0
 10
127.143421
 20
162.725916
 30
0.0
 10
126.275227
 20
162.725916
 30
0.0
  0
SPLINE
  5
1c5
100
AcDbEntity
  8
4chan_mixer_panel
 62
7
100
AcDbSpline
 70
8
 71
3
 72
8
 73
4
 74
0
 40
0
 40
0
 40
0
 40
0
 40
1
 40
1
 40
1
 40
1
 10
126.275227
 20
162.725916
 30
0.0
 10
125.407034
 20
162.725916
 30
0.0
 10
124.703224
 20
163.428773
 30
0.0
 10
124.703224
 20
164.295790
 30
0.0
  0
SPLINE
  5
1c6
100
AcDbEntity
  8
4chan_mixer_panel
 62
7
100
AcDbSpline
 70
8
 71
3
 72
8
 73
4
 74
0
 40
0
 40
0
 40
0
 40
0
 40
1
 40
1
 40
1
 40
1
 10
124.703224
 20
164.295790
 30
0.0
 10
124.703224
 20
165.162808
 30
0.0
 10
125.407034
 20
165.865665
 30
0.0
 10
126.275227
 20
165.865665
 30
0.0
  0
SPLINE
  5
1c7
100
AcDbEntity
  8
4chan_mixer_panel
 62
7
100
AcDbSpline
 70
8
 71
3
 72
8
 73
4
 74
0
 40
0
 40
0
 40
0
 40
0
 40
1
 40
1
 40
1
 40
1
 10
126.275227
 20
165.865665
 30
0.0
 10
127.143421
 20
165.865665
 30
0.0
 10
127.847231
 20
165.162808
 30
0.0
 10
127.847231
 20
164.295790
 30
0.0
  0
LWPOLYLINE
  5
1c8
100
AcDbEntity
  8
4chan_mixer_panel
 62
7
100
AcDbPolyline
 90
2
 70
0
 10
177.480482
 20
162.749947
 30
0.0
 10
177.480482
 20
165.111244
 30
0.0
  0
SPLINE
  5
1c9
100
AcDbEntity
  8
4chan_mixer_panel
 62
7
100
AcDbSpline
 70
8
 71
3
 72
8
 73
4
 74
0
 40
0
 40
0
 40
0
 40
0
 40
1
 40
1
 40
1
 40
1
 10
150.154781
 20
164.295790
 30
0.0
 10
150.154781
 20
163.428773
 30
0.0
 10
149.450971
 20
162.725916
 30
0.0
 10
148.582777
 20
162.725916
 30
0.0
  0
SPLINE
  5
1ca
100
AcDbEntity
  8
4chan_mixer_panel
 62
7
100
AcDbSpline
 70
8
 71
3
 72
8
 73
4
 74
0
 40
0
 40
0
 40
0
 40
0
 40
1
 40
1
 40
1
 40
1
 10
148.582777
 20
162.725916
 30
0.0
 10
147.714584
 20
162.725916
 30
0.0
 10
147.010774
 20
163.428773
 30
0.0
 10
147.010774
 20
164.295790
 30
0.0
  0
SPLINE
  5
1cb
100
AcDbEntity
  8
4chan_mixer_panel
 62
7
100
AcDbSpline
 70
8
 71
3
 72
8
 73
4
 74
0
 40
0
 40
0
 40
0
 40
0
 40
1
 40
1
 40
1
 40
1
 10
147.010774
 20
164.295790
 30
0.0
 10
147.010774
 20
165.162808
 30
0.0
 10
147.714584
 20
165.865665
 30
0.0
 10
148.582777
 20
165.865665
 30
0.0
  0
SPLINE
  5
1cc
100
AcDbEntity
  8
4chan_mixer_panel
 62
7
100
AcDbSpline
 70
8
 71
3
 72
8
 73
4
 74
0
 40
0
 40
0
 40
0
 40
0
 40
1
 40
1
 40
1
 40
1
 10
148.582777
 20
165.865665
 30
0.0
 10
149.450971
 20
165.865665
 30
0.0
 10
150.154781
 20
165.162808
 30
0.0
 10
150.154781
 20
164.295790
 30
0.0
  0
LWPOLYLINE
  5
1cd
100
AcDbEntity
  8
4chan_mixer_panel
 62
7
100
AcDbPolyline
 90
2
 70
1
 10
127.847231
 20
164.295790
 30
0.0
 10
127.847231
 20
164.295790
 30
0.0
  0
SPLINE
  5
1ce
100
AcDbEntity
  8
4chan_mixer_panel
 62
7
100
AcDbSpline
 70
8
 71
3
 72
8
 73
4
 74
0
 40
0
 40
0
 40
0
 40
0
 40
1
 40
1
 40
1
 40
1
 10
144.890642
 20
164.295789
 30
0.0
 10
144.890642
 20
160.174857
 30
0.0
 10
141.549951
 20
156.834184
 30
0.0
 10
137.428998
 20
156.834184
 30
0.0
  0
SPLINE
  5
1cf
100
AcDbEntity
  8
4chan_mixer_panel
 62
7
100
AcDbSpline
 70
8
 71
3
 72
8
 73
4
 74
0
 40
0
 40
0
 40
0
 40
0
 40
1
 40
1
 40
1
 40
1
 10
137.428998
 20
156.834184
 30
0.0
 10
133.308049
 20
156.834184
 30
0.0
 10
129.967357
 20
160.174857
 30
0.0
 10
129.967357
 20
164.295789
 30
0.0
  0
SPLINE
  5
1d0
100
AcDbEntity
  8
4chan_mixer_panel
 62
7
100
AcDbSpline
 70
8
 71
3
 72
8
 73
4
 74
0
 40
0
 40
0
 40
0
 40
0
 40
1
 40
1
 40
1
 40
1
 10
129.967357
 20
164.295789
 30
0.0
 10
129.967357
 20
168.416720
 30
0.0
 10
133.308049
 20
171.757396
 30
0.0
 10
137.428998
 20
171.757396
 30
0.0
  0
SPLINE
  5
1d1
100
AcDbEntity
  8
4chan_mixer_panel
 62
7
100
AcDbSpline
 70
8
 71
3
 72
8
 73
4
 74
0
 40
0
 40
0
 40
0
 40
0
 40
1
 40
1
 40
1
 40
1
 10
137.428998
 20
171.757396
 30
0.0
 10
141.549951
 20
171.757396
 30
0.0
 10
144.890642
 20
168.416720
 30
0.0
 10
144.890642
 20
164.295789
 30
0.0
  0
LWPOLYLINE
  5
1d2
100
AcDbEntity
  8
4chan_mixer_panel
 62
7
100
AcDbPolyline
 90
2
 70
1
 10
150.154781
 20
164.295790
 30
0.0
 10
150.154781
 20
164.295790
 30
0.0
  0
LWPOLYLINE
  5
1d3
100
AcDbEntity
  8
4chan_mixer_panel
 62
7
100
AcDbPolyline
 90
2
 70
1
 10
144.890642
 20
164.295789
 30
0.0
 10
144.890642
 20
164.295789
 30
0.0
  0
LWPOLYLINE
  5
1d4
100
AcDbEntity
  8
4chan_mixer_panel
 62
7
100
AcDbPolyline
 90
2
 70
0
 10
61.007463
 20
34.349122
 30
0.0
 10
56.552828
 20
26.330765
 30
0.0
  0
LWPOLYLINE
  5
1d5
100
AcDbEntity
  8
4chan_mixer_panel
 62
7
100
AcDbPolyline
 90
2
 70
0
 10
61.007463
 20
34.349122
 30
0.0
 10
52.810934
 20
30.250860
 30
0.0
  0
LWPOLYLINE
  5
1d6
100
AcDbEntity
  8
4chan_mixer_panel
 62
7
100
AcDbPolyline
 90
2
 70
0
 10
61.007463
 20
34.349122
 30
0.0
 10
51.920009
 20
35.418236
 30
0.0
  0
LWPOLYLINE
  5
1d7
100
AcDbEntity
  8
4chan_mixer_panel
 62
7
100
AcDbPolyline
 90
2
 70
0
 10
61.007463
 20
34.349122
 30
0.0
 10
54.058232
 20
40.229250
 30
0.0
  0
LWPOLYLINE
  5
1d8
100
AcDbEntity
  8
4chan_mixer_panel
 62
7
100
AcDbPolyline
 90
2
 70
0
 10
61.007463
 20
34.349122
 30
0.0
 10
58.512867
 20
43.080203
 30
0.0
  0
LWPOLYLINE
  5
1d9
100
AcDbEntity
  8
4chan_mixer_panel
 62
7
100
AcDbPolyline
 90
2
 70
0
 10
61.007463
 20
34.349122
 30
0.0
 10
63.502056
 20
43.080203
 30
0.0
  0
LWPOLYLINE
  5
1da
100
AcDbEntity
  8
4chan_mixer_panel
 62
7
100
AcDbPolyline
 90
2
 70
0
 10
61.007463
 20
34.349122
 30
0.0
 10
67.956691
 20
40.229250
 30
0.0
  0
LWPOLYLINE
  5
1db
100
AcDbEntity
  8
4chan_mixer_panel
 62
7
100
AcDbPolyline
 90
2
 70
0
 10
61.007463
 20
34.349122
 30
0.0
 10
70.094917
 20
35.418236
 30
0.0
  0
LWPOLYLINE
  5
1dc
100
AcDbEntity
  8
4chan_mixer_panel
 62
7
100
AcDbPolyline
 90
2
 70
0
 10
61.007463
 20
34.349122
 30
0.0
 10
69.203989
 20
30.250860
 30
0.0
  0
LWPOLYLINE
  5
1dd
100
AcDbEntity
  8
4chan_mixer_panel
 62
7
100
AcDbPolyline
 90
2
 70
0
 10
61.007463
 20
34.349122
 30
0.0
 10
65.640282
 20
26.330765
 30
0.0
  0
LWPOLYLINE
  5
1de
100
AcDbEntity
  8
4chan_mixer_panel
 62
7
100
AcDbPolyline
 90
2
 70
0
 10
61.007463
 20
34.349122
 30
0.0
 10
57.087385
 20
27.399880
 30
0.0
  0
LWPOLYLINE
  5
1df
100
AcDbEntity
  8
4chan_mixer_panel
 62
7
100
AcDbPolyline
 90
2
 70
0
 10
61.007463
 20
34.349122
 30
0.0
 10
56.018271
 20
27.934437
 30
0.0
  0
LWPOLYLINE
  5
1e0
100
AcDbEntity
  8
4chan_mixer_panel
 62
7
100
AcDbPolyline
 90
2
 70
0
 10
61.007463
 20
34.349122
 30
0.0
 10
55.127343
 20
28.825384
 30
0.0
  0
LWPOLYLINE
  5
1e1
100
AcDbEntity
  8
4chan_mixer_panel
 62
7
100
AcDbPolyline
 90
2
 70
0
 10
61.007463
 20
34.349122
 30
0.0
 10
54.414602
 20
29.716303
 30
0.0
  0
LWPOLYLINE
  5
1e2
100
AcDbEntity
  8
4chan_mixer_panel
 62
7
100
AcDbPolyline
 90
2
 70
0
 10
61.007463
 20
34.349122
 30
0.0
 10
53.701861
 20
30.785417
 30
0.0
  0
LWPOLYLINE
  5
1e3
100
AcDbEntity
  8
4chan_mixer_panel
 62
7
100
AcDbPolyline
 90
2
 70
0
 10
61.007463
 20
34.349122
 30
0.0
 10
53.345491
 20
31.854532
 30
0.0
  0
LWPOLYLINE
  5
1e4
100
AcDbEntity
  8
4chan_mixer_panel
 62
7
100
AcDbPolyline
 90
2
 70
0
 10
61.007463
 20
34.349122
 30
0.0
 10
52.989121
 20
33.101813
 30
0.0
  0
LWPOLYLINE
  5
1e5
100
AcDbEntity
  8
4chan_mixer_panel
 62
7
100
AcDbPolyline
 90
2
 70
0
 10
61.007463
 20
34.349122
 30
0.0
 10
52.989121
 20
34.170927
 30
0.0
  0
LWPOLYLINE
  5
1e6
100
AcDbEntity
  8
4chan_mixer_panel
 62
7
100
AcDbPolyline
 90
2
 70
0
 10
61.007463
 20
34.349122
 30
0.0
 10
52.989121
 20
35.240041
 30
0.0
  0
LWPOLYLINE
  5
1e7
100
AcDbEntity
  8
4chan_mixer_panel
 62
7
100
AcDbPolyline
 90
2
 70
0
 10
61.007463
 20
34.349122
 30
0.0
 10
53.167304
 20
36.309155
 30
0.0
  0
LWPOLYLINE
  5
1e8
100
AcDbEntity
  8
4chan_mixer_panel
 62
7
100
AcDbPolyline
 90
2
 70
0
 10
61.007463
 20
34.349122
 30
0.0
 10
53.523678
 20
37.556465
 30
0.0
  0
LWPOLYLINE
  5
1e9
100
AcDbEntity
  8
4chan_mixer_panel
 62
7
100
AcDbPolyline
 90
2
 70
0
 10
61.007463
 20
34.349122
 30
0.0
 10
54.058232
 20
38.625579
 30
0.0
  0
LWPOLYLINE
  5
1ea
100
AcDbEntity
  8
4chan_mixer_panel
 62
7
100
AcDbPolyline
 90
2
 70
0
 10
61.007463
 20
34.349122
 30
0.0
 10
54.770973
 20
39.516498
 30
0.0
  0
LWPOLYLINE
  5
1eb
100
AcDbEntity
  8
4chan_mixer_panel
 62
7
100
AcDbPolyline
 90
2
 70
0
 10
61.007463
 20
34.349122
 30
0.0
 10
55.661900
 20
40.407417
 30
0.0
  0
LWPOLYLINE
  5
1ec
100
AcDbEntity
  8
4chan_mixer_panel
 62
7
100
AcDbPolyline
 90
2
 70
0
 10
61.007463
 20
34.349122
 30
0.0
 10
56.552828
 20
41.120169
 30
0.0
  0
LWPOLYLINE
  5
1ed
100
AcDbEntity
  8
4chan_mixer_panel
 62
7
100
AcDbPolyline
 90
2
 70
0
 10
61.007463
 20
34.349122
 30
0.0
 10
57.621939
 20
41.654726
 30
0.0
  0
LWPOLYLINE
  5
1ee
100
AcDbEntity
  8
4chan_mixer_panel
 62
7
100
AcDbPolyline
 90
2
 70
0
 10
61.007463
 20
34.349122
 30
0.0
 10
58.691054
 20
42.189284
 30
0.0
  0
LWPOLYLINE
  5
1ef
100
AcDbEntity
  8
4chan_mixer_panel
 62
7
100
AcDbPolyline
 90
2
 70
0
 10
61.007463
 20
34.349122
 30
0.0
 10
59.938349
 20
42.367450
 30
0.0
  0
LWPOLYLINE
  5
1f0
100
AcDbEntity
  8
4chan_mixer_panel
 62
7
100
AcDbPolyline
 90
2
 70
0
 10
61.007463
 20
34.349122
 30
0.0
 10
61.007463
 20
42.545646
 30
0.0
  0
LWPOLYLINE
  5
1f1
100
AcDbEntity
  8
4chan_mixer_panel
 62
7
100
AcDbPolyline
 90
2
 70
0
 10
61.007463
 20
34.349122
 30
0.0
 10
62.076574
 20
42.367450
 30
0.0
  0
LWPOLYLINE
  5
1f2
100
AcDbEntity
  8
4chan_mixer_panel
 62
7
100
AcDbPolyline
 90
2
 70
0
 10
61.007463
 20
34.349122
 30
0.0
 10
63.323873
 20
42.189284
 30
0.0
  0
LWPOLYLINE
  5
1f3
100
AcDbEntity
  8
4chan_mixer_panel
 62
7
100
AcDbPolyline
 90
2
 70
0
 10
61.007463
 20
34.349122
 30
0.0
 10
64.392984
 20
41.654726
 30
0.0
  0
LWPOLYLINE
  5
1f4
100
AcDbEntity
  8
4chan_mixer_panel
 62
7
100
AcDbPolyline
 90
2
 70
0
 10
61.007463
 20
34.349122
 30
0.0
 10
65.462095
 20
41.120169
 30
0.0
  0
LWPOLYLINE
  5
1f5
100
AcDbEntity
  8
4chan_mixer_panel
 62
7
100
AcDbPolyline
 90
2
 70
0
 10
61.007463
 20
34.349122
 30
0.0
 10
66.353023
 20
40.407417
 30
0.0
  0
LWPOLYLINE
  5
1f6
100
AcDbEntity
  8
4chan_mixer_panel
 62
7
100
AcDbPolyline
 90
2
 70
0
 10
61.007463
 20
34.349122
 30
0.0
 10
67.243950
 20
39.516498
 30
0.0
  0
LWPOLYLINE
  5
1f7
100
AcDbEntity
  8
4chan_mixer_panel
 62
7
100
AcDbPolyline
 90
2
 70
0
 10
61.007463
 20
34.349122
 30
0.0
 10
67.956691
 20
38.625579
 30
0.0
  0
LWPOLYLINE
  5
1f8
100
AcDbEntity
  8
4chan_mixer_panel
 62
7
100
AcDbPolyline
 90
2
 70
0
 10
61.007463
 20
34.349122
 30
0.0
 10
68.491249
 20
37.556465
 30
0.0
  0
LWPOLYLINE
  5
1f9
100
AcDbEntity
  8
4chan_mixer_panel
 62
7
100
AcDbPolyline
 90
2
 70
0
 10
61.007463
 20
34.349122
 30
0.0
 10
68.847619
 20
36.309155
 30
0.0
  0
LWPOLYLINE
  5
1fa
100
AcDbEntity
  8
4chan_mixer_panel
 62
7
100
AcDbPolyline
 90
2
 70
0
 10
61.007463
 20
34.349122
 30
0.0
 10
69.025806
 20
35.240041
 30
0.0
  0
LWPOLYLINE
  5
1fb
100
AcDbEntity
  8
4chan_mixer_panel
 62
7
100
AcDbPolyline
 90
2
 70
0
 10
61.007463
 20
34.349122
 30
0.0
 10
69.025806
 20
34.170927
 30
0.0
  0
LWPOLYLINE
  5
1fc
100
AcDbEntity
  8
4chan_mixer_panel
 62
7
100
AcDbPolyline
 90
2
 70
0
 10
61.007463
 20
34.349122
 30
0.0
 10
69.025806
 20
33.101813
 30
0.0
  0
LWPOLYLINE
  5
1fd
100
AcDbEntity
  8
4chan_mixer_panel
 62
7
100
AcDbPolyline
 90
2
 70
0
 10
61.007463
 20
34.349122
 30
0.0
 10
68.669432
 20
31.854532
 30
0.0
  0
LWPOLYLINE
  5
1fe
100
AcDbEntity
  8
4chan_mixer_panel
 62
7
100
AcDbPolyline
 90
2
 70
0
 10
61.007463
 20
34.349122
 30
0.0
 10
68.313062
 20
30.785417
 30
0.0
  0
LWPOLYLINE
  5
1ff
100
AcDbEntity
  8
4chan_mixer_panel
 62
7
100
AcDbPolyline
 90
2
 70
0
 10
61.007463
 20
34.349122
 30
0.0
 10
67.600321
 20
29.716303
 30
0.0
  0
LWPOLYLINE
  5
200
100
AcDbEntity
  8
4chan_mixer_panel
 62
7
100
AcDbPolyline
 90
2
 70
0
 10
61.007463
 20
34.349122
 30
0.0
 10
66.887580
 20
28.825384
 30
0.0
  0
LWPOLYLINE
  5
201
100
AcDbEntity
  8
4chan_mixer_panel
 62
7
100
AcDbPolyline
 90
2
 70
0
 10
61.007463
 20
34.349122
 30
0.0
 10
65.996652
 20
27.934437
 30
0.0
  0
SPLINE
  5
202
100
AcDbEntity
  8
4chan_mixer_panel
 62
7
100
AcDbSpline
 70
8
 71
3
 72
8
 73
4
 74
0
 40
0
 40
0
 40
0
 40
0
 40
1
 40
1
 40
1
 40
1
 10
58.334680
 20
34.349122
 30
0.0
 10
58.334680
 20
35.952793
 30
0.0
 10
59.403795
 20
37.021908
 30
0.0
 10
61.007463
 20
37.021908
 30
0.0
  0
SPLINE
  5
203
100
AcDbEntity
  8
4chan_mixer_panel
 62
7
100
AcDbSpline
 70
8
 71
3
 72
8
 73
4
 74
0
 40
0
 40
0
 40
0
 40
0
 40
1
 40
1
 40
1
 40
1
 10
61.007463
 20
37.021908
 30
0.0
 10
62.611132
 20
37.021908
 30
0.0
 10
63.680243
 20
35.952793
 30
0.0
 10
63.680243
 20
34.349122
 30
0.0
  0
SPLINE
  5
204
100
AcDbEntity
  8
4chan_mixer_panel
 62
7
100
AcDbSpline
 70
8
 71
3
 72
8
 73
4
 74
0
 40
0
 40
0
 40
0
 40
0
 40
1
 40
1
 40
1
 40
1
 10
63.680243
 20
34.349122
 30
0.0
 10
63.680243
 20
32.745451
 30
0.0
 10
62.611132
 20
31.676336
 30
0.0
 10
61.007463
 20
31.676336
 30
0.0
  0
SPLINE
  5
205
100
AcDbEntity
  8
4chan_mixer_panel
 62
7
100
AcDbSpline
 70
8
 71
3
 72
8
 73
4
 74
0
 40
0
 40
0
 40
0
 40
0
 40
1
 40
1
 40
1
 40
1
 10
61.007463
 20
31.676336
 30
0.0
 10
59.403795
 20
31.676336
 30
0.0
 10
58.334680
 20
32.745451
 30
0.0
 10
58.334680
 20
34.349122
 30
0.0
  0
LWPOLYLINE
  5
206
100
AcDbEntity
  8
4chan_mixer_panel
 62
7
100
AcDbPolyline
 90
2
 70
0
 10
61.007463
 20
34.349122
 30
0.0
 10
65.105725
 20
27.399880
 30
0.0
  0
LWPOLYLINE
  5
207
100
AcDbEntity
  8
4chan_mixer_panel
 62
7
100
AcDbPolyline
 90
2
 70
0
 10
59.938349
 20
34.349122
 30
0.0
 10
62.076574
 20
34.349122
 30
0.0
  0
LWPOLYLINE
  5
208
100
AcDbEntity
  8
4chan_mixer_panel
 62
7
100
AcDbPolyline
 90
2
 70
0
 10
61.007463
 20
33.280008
 30
0.0
 10
61.007463
 20
35.418236
 30
0.0
  0
LWPOLYLINE
  5
209
100
AcDbEntity
  8
4chan_mixer_panel
 62
7
100
AcDbPolyline
 90
6
 70
1
 10
45.338227
 20
135.026957
 30
0.0
 10
45.354455
 20
135.026957
 30
0.0
 10
45.354455
 20
135.044596
 30
0.0
 10
45.338227
 20
135.044596
 30
0.0
 10
45.338227
 20
135.026957
 30
0.0
 10
45.338227
 20
135.026957
 30
0.0
  0
LWPOLYLINE
  5
20a
100
AcDbEntity
  8
4chan_mixer_panel
 62
7
100
AcDbPolyline
 90
6
 70
1
 10
45.338227
 20
12.583435
 30
0.0
 10
45.354455
 20
12.583435
 30
0.0
 10
45.354455
 20
12.601074
 30
0.0
 10
45.338227
 20
12.601074
 30
0.0
 10
45.338227
 20
12.583435
 30
0.0
 10
45.338227
 20
12.583435
 30
0.0
  0
LWPOLYLINE
  5
20b
100
AcDbEntity
  8
4chan_mixer_panel
 62
7
100
AcDbPolyline
 90
6
 70
1
 10
170.180285
 20
12.583435
 30
0.0
 10
170.196513
 20
12.583435
 30
0.0
 10
170.196513
 20
12.601074
 30
0.0
 10
170.180285
 20
12.601074
 30
0.0
 10
170.180285
 20
12.583435
 30
0.0
 10
170.180285
 20
12.583435
 30
0.0
  0
SPLINE
  5
20c
100
AcDbEntity
  8
4chan_mixer_panel
 62
7
100
AcDbSpline
 70
8
 71
3
 72
8
 73
4
 74
0
 40
0
 40
0
 40
0
 40
0
 40
1
 40
1
 40
1
 40
1
 10
30.993871
 20
31.634023
 30
0.0
 10
30.993871
 20
33.404995
 30
0.0
 10
32.174516
 20
34.585644
 30
0.0
 10
33.945481
 20
34.585644
 30
0.0
  0
SPLINE
  5
20d
100
AcDbEntity
  8
4chan_mixer_panel
 62
7
100
AcDbSpline
 70
8
 71
3
 72
8
 73
4
 74
0
 40
0
 40
0
 40
0
 40
0
 40
1
 40
1
 40
1
 40
1
 10
33.945481
 20
34.585644
 30
0.0
 10
35.716445
 20
34.585644
 30
0.0
 10
36.897088
 20
33.404995
 30
0.0
 10
36.897088
 20
31.634023
 30
0.0
  0
SPLINE
  5
20e
100
AcDbEntity
  8
4chan_mixer_panel
 62
7
100
AcDbSpline
 70
8
 71
3
 72
8
 73
4
 74
0
 40
0
 40
0
 40
0
 40
0
 40
1
 40
1
 40
1
 40
1
 10
36.897088
 20
31.634023
 30
0.0
 10
36.897088
 20
29.863050
 30
0.0
 10
35.716445
 20
28.682402
 30
0.0
 10
33.945481
 20
28.682402
 30
0.0
  0
SPLINE
  5
20f
100
AcDbEntity
  8
4chan_mixer_panel
 62
7
100
AcDbSpline
 70
8
 71
3
 72
8
 73
4
 74
0
 40
0
 40
0
 40
0
 40
0
 40
1
 40
1
 40
1
 40
1
 10
33.945481
 20
28.682402
 30
0.0
 10
32.174516
 20
28.682402
 30
0.0
 10
30.993871
 20
29.863050
 30
0.0
 10
30.993871
 20
31.634023
 30
0.0
  0
LWPOLYLINE
  5
210
100
AcDbEntity
  8
4chan_mixer_panel
 62
7
100
AcDbPolyline
 90
6
 70
1
 10
170.180285
 20
135.026957
 30
0.0
 10
170.196513
 20
135.026957
 30
0.0
 10
170.196513
 20
135.044596
 30
0.0
 10
170.180285
 20
135.044596
 30
0.0
 10
170.180285
 20
135.026957
 30
0.0
 10
170.180285
 20
135.026957
 30
0.0
  0
LWPOLYLINE
  5
211
100
AcDbEntity
  8
4chan_mixer_panel
 62
7
100
AcDbPolyline
 90
2
 70
0
 10
32.764835
 20
31.634023
 30
0.0
 10
35.126123
 20
31.634023
 30
0.0
  0
LWPOLYLINE
  5
212
100
AcDbEntity
  8
4chan_mixer_panel
 62
7
100
AcDbPolyline
 90
2
 70
0
 10
33.945481
 20
30.453374
 30
0.0
 10
33.945481
 20
32.814671
 30
0.0
  0
SPLINE
  5
213
100
AcDbEntity
  8
4chan_mixer_panel
 62
7
100
AcDbSpline
 70
8
 71
3
 72
8
 73
4
 74
0
 40
0
 40
0
 40
0
 40
0
 40
1
 40
1
 40
1
 40
1
 10
37.778760
 20
113.181967
 30
0.0
 10
37.778760
 20
113.008790
 30
0.0
 10
37.673469
 20
112.868402
 30
0.0
 10
37.543587
 20
112.868402
 30
0.0
  0
SPLINE
  5
214
100
AcDbEntity
  8
4chan_mixer_panel
 62
7
100
AcDbSpline
 70
8
 71
3
 72
8
 73
4
 74
0
 40
0
 40
0
 40
0
 40
0
 40
1
 40
1
 40
1
 40
1
 10
37.543587
 20
112.868402
 30
0.0
 10
37.413704
 20
112.868402
 30
0.0
 10
37.308414
 20
113.008790
 30
0.0
 10
37.308414
 20
113.181967
 30
0.0
  0
SPLINE
  5
215
100
AcDbEntity
  8
4chan_mixer_panel
 62
7
100
AcDbSpline
 70
8
 71
3
 72
8
 73
4
 74
0
 40
0
 40
0
 40
0
 40
0
 40
1
 40
1
 40
1
 40
1
 10
37.308414
 20
113.181967
 30
0.0
 10
37.308414
 20
113.355145
 30
0.0
 10
37.413704
 20
113.495530
 30
0.0
 10
37.543587
 20
113.495530
 30
0.0
  0
SPLINE
  5
216
100
AcDbEntity
  8
4chan_mixer_panel
 62
7
100
AcDbSpline
 70
8
 71
3
 72
8
 73
4
 74
0
 40
0
 40
0
 40
0
 40
0
 40
1
 40
1
 40
1
 40
1
 10
37.543587
 20
113.495530
 30
0.0
 10
37.673469
 20
113.495530
 30
0.0
 10
37.778760
 20
113.355145
 30
0.0
 10
37.778760
 20
113.181967
 30
0.0
  0
LWPOLYLINE
  5
217
100
AcDbEntity
  8
4chan_mixer_panel
 62
7
100
AcDbPolyline
 90
5
 70
1
 10
36.113871
 20
110.270967
 30
0.0
 10
39.071555
 20
110.270967
 30
0.0
 10
39.071555
 20
70.800781
 30
0.0
 10
36.113871
 20
70.800781
 30
0.0
 10
36.113871
 20
110.270967
 30
0.0
  0
SPLINE
  5
218
100
AcDbEntity
  8
4chan_mixer_panel
 62
7
100
AcDbSpline
 70
8
 71
3
 72
8
 73
4
 74
0
 40
0
 40
0
 40
0
 40
0
 40
1
 40
1
 40
1
 40
1
 10
37.778760
 20
67.938218
 30
0.0
 10
37.778760
 20
67.765041
 30
0.0
 10
37.673469
 20
67.624652
 30
0.0
 10
37.543587
 20
67.624652
 30
0.0
  0
SPLINE
  5
219
100
AcDbEntity
  8
4chan_mixer_panel
 62
7
100
AcDbSpline
 70
8
 71
3
 72
8
 73
4
 74
0
 40
0
 40
0
 40
0
 40
0
 40
1
 40
1
 40
1
 40
1
 10
37.543587
 20
67.624652
 30
0.0
 10
37.413704
 20
67.624652
 30
0.0
 10
37.308414
 20
67.765041
 30
0.0
 10
37.308414
 20
67.938218
 30
0.0
  0
SPLINE
  5
21a
100
AcDbEntity
  8
4chan_mixer_panel
 62
7
100
AcDbSpline
 70
8
 71
3
 72
8
 73
4
 74
0
 40
0
 40
0
 40
0
 40
0
 40
1
 40
1
 40
1
 40
1
 10
37.308414
 20
67.938218
 30
0.0
 10
37.308414
 20
68.111395
 30
0.0
 10
37.413704
 20
68.251781
 30
0.0
 10
37.543587
 20
68.251781
 30
0.0
  0
SPLINE
  5
21b
100
AcDbEntity
  8
4chan_mixer_panel
 62
7
100
AcDbSpline
 70
8
 71
3
 72
8
 73
4
 74
0
 40
0
 40
0
 40
0
 40
0
 40
1
 40
1
 40
1
 40
1
 10
37.543587
 20
68.251781
 30
0.0
 10
37.673469
 20
68.251781
 30
0.0
 10
37.778760
 20
68.111395
 30
0.0
 10
37.778760
 20
67.938218
 30
0.0
  0
LWPOLYLINE
  5
21c
100
AcDbEntity
  8
4chan_mixer_panel
 62
7
100
AcDbPolyline
 90
2
 70
1
 10
37.778760
 20
113.181967
 30
0.0
 10
37.778760
 20
113.181967
 30
0.0
  0
LWPOLYLINE
  5
21d
100
AcDbEntity
  8
4chan_mixer_panel
 62
7
100
AcDbPolyline
 90
2
 70
1
 10
37.778760
 20
67.938218
 30
0.0
 10
37.778760
 20
67.938218
 30
0.0
  0
SPLINE
  5
21e
100
AcDbEntity
  8
4chan_mixer_panel
 62
7
100
AcDbSpline
 70
8
 71
3
 72
8
 73
4
 74
0
 40
0
 40
0
 40
0
 40
0
 40
1
 40
1
 40
1
 40
1
 10
53.441339
 20
113.181967
 30
0.0
 10
53.441339
 20
113.008790
 30
0.0
 10
53.336048
 20
112.868402
 30
0.0
 10
53.206165
 20
112.868402
 30
0.0
  0
SPLINE
  5
21f
100
AcDbEntity
  8
4chan_mixer_panel
 62
7
100
AcDbSpline
 70
8
 71
3
 72
8
 73
4
 74
0
 40
0
 40
0
 40
0
 40
0
 40
1
 40
1
 40
1
 40
1
 10
53.206165
 20
112.868402
 30
0.0
 10
53.076283
 20
112.868402
 30
0.0
 10
52.970992
 20
113.008790
 30
0.0
 10
52.970992
 20
113.181967
 30
0.0
  0
SPLINE
  5
220
100
AcDbEntity
  8
4chan_mixer_panel
 62
7
100
AcDbSpline
 70
8
 71
3
 72
8
 73
4
 74
0
 40
0
 40
0
 40
0
 40
0
 40
1
 40
1
 40
1
 40
1
 10
52.970992
 20
113.181967
 30
0.0
 10
52.970992
 20
113.355145
 30
0.0
 10
53.076283
 20
113.495530
 30
0.0
 10
53.206165
 20
113.495530
 30
0.0
  0
SPLINE
  5
221
100
AcDbEntity
  8
4chan_mixer_panel
 62
7
100
AcDbSpline
 70
8
 71
3
 72
8
 73
4
 74
0
 40
0
 40
0
 40
0
 40
0
 40
1
 40
1
 40
1
 40
1
 10
53.206165
 20
113.495530
 30
0.0
 10
53.336048
 20
113.495530
 30
0.0
 10
53.441339
 20
113.355145
 30
0.0
 10
53.441339
 20
113.181967
 30
0.0
  0
LWPOLYLINE
  5
222
100
AcDbEntity
  8
4chan_mixer_panel
 62
7
100
AcDbPolyline
 90
5
 70
1
 10
51.776450
 20
110.270967
 30
0.0
 10
54.734133
 20
110.270967
 30
0.0
 10
54.734133
 20
70.800781
 30
0.0
 10
51.776450
 20
70.800781
 30
0.0
 10
51.776450
 20
110.270967
 30
0.0
  0
SPLINE
  5
223
100
AcDbEntity
  8
4chan_mixer_panel
 62
7
100
AcDbSpline
 70
8
 71
3
 72
8
 73
4
 74
0
 40
0
 40
0
 40
0
 40
0
 40
1
 40
1
 40
1
 40
1
 10
53.441339
 20
67.938218
 30
0.0
 10
53.441339
 20
67.765041
 30
0.0
 10
53.336048
 20
67.624652
 30
0.0
 10
53.206165
 20
67.624652
 30
0.0
  0
SPLINE
  5
224
100
AcDbEntity
  8
4chan_mixer_panel
 62
7
100
AcDbSpline
 70
8
 71
3
 72
8
 73
4
 74
0
 40
0
 40
0
 40
0
 40
0
 40
1
 40
1
 40
1
 40
1
 10
53.206165
 20
67.624652
 30
0.0
 10
53.076283
 20
67.624652
 30
0.0
 10
52.970992
 20
67.765041
 30
0.0
 10
52.970992
 20
67.938218
 30
0.0
  0
SPLINE
  5
225
100
AcDbEntity
  8
4chan_mixer_panel
 62
7
100
AcDbSpline
 70
8
 71
3
 72
8
 73
4
 74
0
 40
0
 40
0
 40
0
 40
0
 40
1
 40
1
 40
1
 40
1
 10
52.970992
 20
67.938218
 30
0.0
 10
52.970992
 20
68.111395
 30
0.0
 10
53.076283
 20
68.251781
 30
0.0
 10
53.206165
 20
68.251781
 30
0.0
  0
SPLINE
  5
226
100
AcDbEntity
  8
4chan_mixer_panel
 62
7
100
AcDbSpline
 70
8
 71
3
 72
8
 73
4
 74
0
 40
0
 40
0
 40
0
 40
0
 40
1
 40
1
 40
1
 40
1
 10
53.206165
 20
68.251781
 30
0.0
 10
53.336048
 20
68.251781
 30
0.0
 10
53.441339
 20
68.111395
 30
0.0
 10
53.441339
 20
67.938218
 30
0.0
  0
LWPOLYLINE
  5
227
100
AcDbEntity
  8
4chan_mixer_panel
 62
7
100
AcDbPolyline
 90
2
 70
1
 10
53.441339
 20
113.181967
 30
0.0
 10
53.441339
 20
113.181967
 30
0.0
  0
LWPOLYLINE
  5
228
100
AcDbEntity
  8
4chan_mixer_panel
 62
7
100
AcDbPolyline
 90
2
 70
1
 10
53.441339
 20
67.938218
 30
0.0
 10
53.441339
 20
67.938218
 30
0.0
  0
SPLINE
  5
229
100
AcDbEntity
  8
4chan_mixer_panel
 62
7
100
AcDbSpline
 70
8
 71
3
 72
8
 73
4
 74
0
 40
0
 40
0
 40
0
 40
0
 40
1
 40
1
 40
1
 40
1
 10
69.103914
 20
113.181967
 30
0.0
 10
69.103914
 20
113.008790
 30
0.0
 10
68.998623
 20
112.868402
 30
0.0
 10
68.868740
 20
112.868402
 30
0.0
  0
SPLINE
  5
22a
100
AcDbEntity
  8
4chan_mixer_panel
 62
7
100
AcDbSpline
 70
8
 71
3
 72
8
 73
4
 74
0
 40
0
 40
0
 40
0
 40
0
 40
1
 40
1
 40
1
 40
1
 10
68.868740
 20
112.868402
 30
0.0
 10
68.738857
 20
112.868402
 30
0.0
 10
68.633567
 20
113.008790
 30
0.0
 10
68.633567
 20
113.181967
 30
0.0
  0
SPLINE
  5
22b
100
AcDbEntity
  8
4chan_mixer_panel
 62
7
100
AcDbSpline
 70
8
 71
3
 72
8
 73
4
 74
0
 40
0
 40
0
 40
0
 40
0
 40
1
 40
1
 40
1
 40
1
 10
68.633567
 20
113.181967
 30
0.0
 10
68.633567
 20
113.355145
 30
0.0
 10
68.738857
 20
113.495530
 30
0.0
 10
68.868740
 20
113.495530
 30
0.0
  0
SPLINE
  5
22c
100
AcDbEntity
  8
4chan_mixer_panel
 62
7
100
AcDbSpline
 70
8
 71
3
 72
8
 73
4
 74
0
 40
0
 40
0
 40
0
 40
0
 40
1
 40
1
 40
1
 40
1
 10
68.868740
 20
113.495530
 30
0.0
 10
68.998623
 20
113.495530
 30
0.0
 10
69.103914
 20
113.355145
 30
0.0
 10
69.103914
 20
113.181967
 30
0.0
  0
LWPOLYLINE
  5
22d
100
AcDbEntity
  8
4chan_mixer_panel
 62
7
100
AcDbPolyline
 90
5
 70
1
 10
67.439025
 20
110.270967
 30
0.0
 10
70.396708
 20
110.270967
 30
0.0
 10
70.396708
 20
70.800781
 30
0.0
 10
67.439025
 20
70.800781
 30
0.0
 10
67.439025
 20
110.270967
 30
0.0
  0
SPLINE
  5
22e
100
AcDbEntity
  8
4chan_mixer_panel
 62
7
100
AcDbSpline
 70
8
 71
3
 72
8
 73
4
 74
0
 40
0
 40
0
 40
0
 40
0
 40
1
 40
1
 40
1
 40
1
 10
69.103914
 20
67.938218
 30
0.0
 10
69.103914
 20
67.765041
 30
0.0
 10
68.998623
 20
67.624652
 30
0.0
 10
68.868740
 20
67.624652
 30
0.0
  0
SPLINE
  5
22f
100
AcDbEntity
  8
4chan_mixer_panel
 62
7
100
AcDbSpline
 70
8
 71
3
 72
8
 73
4
 74
0
 40
0
 40
0
 40
0
 40
0
 40
1
 40
1
 40
1
 40
1
 10
68.868740
 20
67.624652
 30
0.0
 10
68.738857
 20
67.624652
 30
0.0
 10
68.633567
 20
67.765041
 30
0.0
 10
68.633567
 20
67.938218
 30
0.0
  0
SPLINE
  5
230
100
AcDbEntity
  8
4chan_mixer_panel
 62
7
100
AcDbSpline
 70
8
 71
3
 72
8
 73
4
 74
0
 40
0
 40
0
 40
0
 40
0
 40
1
 40
1
 40
1
 40
1
 10
68.633567
 20
67.938218
 30
0.0
 10
68.633567
 20
68.111395
 30
0.0
 10
68.738857
 20
68.251781
 30
0.0
 10
68.868740
 20
68.251781
 30
0.0
  0
SPLINE
  5
231
100
AcDbEntity
  8
4chan_mixer_panel
 62
7
100
AcDbSpline
 70
8
 71
3
 72
8
 73
4
 74
0
 40
0
 40
0
 40
0
 40
0
 40
1
 40
1
 40
1
 40
1
 10
68.868740
 20
68.251781
 30
0.0
 10
68.998623
 20
68.251781
 30
0.0
 10
69.103914
 20
68.111395
 30
0.0
 10
69.103914
 20
67.938218
 30
0.0
  0
LWPOLYLINE
  5
232
100
AcDbEntity
  8
4chan_mixer_panel
 62
7
100
AcDbPolyline
 90
2
 70
1
 10
69.103914
 20
113.181967
 30
0.0
 10
69.103914
 20
113.181967
 30
0.0
  0
LWPOLYLINE
  5
233
100
AcDbEntity
  8
4chan_mixer_panel
 62
7
100
AcDbPolyline
 90
2
 70
1
 10
69.103914
 20
67.938218
 30
0.0
 10
69.103914
 20
67.938218
 30
0.0
  0
SPLINE
  5
234
100
AcDbEntity
  8
4chan_mixer_panel
 62
7
100
AcDbSpline
 70
8
 71
3
 72
8
 73
4
 74
0
 40
0
 40
0
 40
0
 40
0
 40
1
 40
1
 40
1
 40
1
 10
84.766478
 20
113.181967
 30
0.0
 10
84.766478
 20
113.008790
 30
0.0
 10
84.661187
 20
112.868402
 30
0.0
 10
84.531304
 20
112.868402
 30
0.0
  0
SPLINE
  5
235
100
AcDbEntity
  8
4chan_mixer_panel
 62
7
100
AcDbSpline
 70
8
 71
3
 72
8
 73
4
 74
0
 40
0
 40
0
 40
0
 40
0
 40
1
 40
1
 40
1
 40
1
 10
84.531304
 20
112.868402
 30
0.0
 10
84.401422
 20
112.868402
 30
0.0
 10
84.296131
 20
113.008790
 30
0.0
 10
84.296131
 20
113.181967
 30
0.0
  0
SPLINE
  5
236
100
AcDbEntity
  8
4chan_mixer_panel
 62
7
100
AcDbSpline
 70
8
 71
3
 72
8
 73
4
 74
0
 40
0
 40
0
 40
0
 40
0
 40
1
 40
1
 40
1
 40
1
 10
84.296131
 20
113.181967
 30
0.0
 10
84.296131
 20
113.355145
 30
0.0
 10
84.401422
 20
113.495530
 30
0.0
 10
84.531304
 20
113.495530
 30
0.0
  0
SPLINE
  5
237
100
AcDbEntity
  8
4chan_mixer_panel
 62
7
100
AcDbSpline
 70
8
 71
3
 72
8
 73
4
 74
0
 40
0
 40
0
 40
0
 40
0
 40
1
 40
1
 40
1
 40
1
 10
84.531304
 20
113.495530
 30
0.0
 10
84.661187
 20
113.495530
 30
0.0
 10
84.766478
 20
113.355145
 30
0.0
 10
84.766478
 20
113.181967
 30
0.0
  0
LWPOLYLINE
  5
238
100
AcDbEntity
  8
4chan_mixer_panel
 62
7
100
AcDbPolyline
 90
5
 70
1
 10
83.101589
 20
110.270967
 30
0.0
 10
86.059272
 20
110.270967
 30
0.0
 10
86.059272
 20
70.800781
 30
0.0
 10
83.101589
 20
70.800781
 30
0.0
 10
83.101589
 20
110.270967
 30
0.0
  0
SPLINE
  5
239
100
AcDbEntity
  8
4chan_mixer_panel
 62
7
100
AcDbSpline
 70
8
 71
3
 72
8
 73
4
 74
0
 40
0
 40
0
 40
0
 40
0
 40
1
 40
1
 40
1
 40
1
 10
84.766478
 20
67.938218
 30
0.0
 10
84.766478
 20
67.765041
 30
0.0
 10
84.661187
 20
67.624652
 30
0.0
 10
84.531304
 20
67.624652
 30
0.0
  0
SPLINE
  5
23a
100
AcDbEntity
  8
4chan_mixer_panel
 62
7
100
AcDbSpline
 70
8
 71
3
 72
8
 73
4
 74
0
 40
0
 40
0
 40
0
 40
0
 40
1
 40
1
 40
1
 40
1
 10
84.531304
 20
67.624652
 30
0.0
 10
84.401422
 20
67.624652
 30
0.0
 10
84.296131
 20
67.765041
 30
0.0
 10
84.296131
 20
67.938218
 30
0.0
  0
SPLINE
  5
23b
100
AcDbEntity
  8
4chan_mixer_panel
 62
7
100
AcDbSpline
 70
8
 71
3
 72
8
 73
4
 74
0
 40
0
 40
0
 40
0
 40
0
 40
1
 40
1
 40
1
 40
1
 10
84.296131
 20
67.938218
 30
0.0
 10
84.296131
 20
68.111395
 30
0.0
 10
84.401422
 20
68.251781
 30
0.0
 10
84.531304
 20
68.251781
 30
0.0
  0
SPLINE
  5
23c
100
AcDbEntity
  8
4chan_mixer_panel
 62
7
100
AcDbSpline
 70
8
 71
3
 72
8
 73
4
 74
0
 40
0
 40
0
 40
0
 40
0
 40
1
 40
1
 40
1
 40
1
 10
84.531304
 20
68.251781
 30
0.0
 10
84.661187
 20
68.251781
 30
0.0
 10
84.766478
 20
68.111395
 30
0.0
 10
84.766478
 20
67.938218
 30
0.0
  0
LWPOLYLINE
  5
23d
100
AcDbEntity
  8
4chan_mixer_panel
 62
7
100
AcDbPolyline
 90
2
 70
1
 10
84.766478
 20
113.181967
 30
0.0
 10
84.766478
 20
113.181967
 30
0.0
  0
LWPOLYLINE
  5
23e
100
AcDbEntity
  8
4chan_mixer_panel
 62
7
100
AcDbPolyline
 90
2
 70
1
 10
84.766478
 20
67.938218
 30
0.0
 10
84.766478
 20
67.938218
 30
0.0
  0
SPLINE
  5
23f
100
AcDbEntity
  8
4chan_mixer_panel
 62
7
100
AcDbSpline
 70
8
 71
3
 72
8
 73
4
 74
0
 40
0
 40
0
 40
0
 40
0
 40
1
 40
1
 40
1
 40
1
 10
100.429053
 20
113.181967
 30
0.0
 10
100.429053
 20
113.008790
 30
0.0
 10
100.323762
 20
112.868402
 30
0.0
 10
100.193879
 20
112.868402
 30
0.0
  0
SPLINE
  5
240
100
AcDbEntity
  8
4chan_mixer_panel
 62
7
100
AcDbSpline
 70
8
 71
3
 72
8
 73
4
 74
0
 40
0
 40
0
 40
0
 40
0
 40
1
 40
1
 40
1
 40
1
 10
100.193879
 20
112.868402
 30
0.0
 10
100.063997
 20
112.868402
 30
0.0
 10
99.958706
 20
113.008790
 30
0.0
 10
99.958706
 20
113.181967
 30
0.0
  0
SPLINE
  5
241
100
AcDbEntity
  8
4chan_mixer_panel
 62
7
100
AcDbSpline
 70
8
 71
3
 72
8
 73
4
 74
0
 40
0
 40
0
 40
0
 40
0
 40
1
 40
1
 40
1
 40
1
 10
99.958706
 20
113.181967
 30
0.0
 10
99.958706
 20
113.355145
 30
0.0
 10
100.063997
 20
113.495530
 30
0.0
 10
100.193879
 20
113.495530
 30
0.0
  0
SPLINE
  5
242
100
AcDbEntity
  8
4chan_mixer_panel
 62
7
100
AcDbSpline
 70
8
 71
3
 72
8
 73
4
 74
0
 40
0
 40
0
 40
0
 40
0
 40
1
 40
1
 40
1
 40
1
 10
100.193879
 20
113.495530
 30
0.0
 10
100.323762
 20
113.495530
 30
0.0
 10
100.429053
 20
113.355145
 30
0.0
 10
100.429053
 20
113.181967
 30
0.0
  0
LWPOLYLINE
  5
243
100
AcDbEntity
  8
4chan_mixer_panel
 62
7
100
AcDbPolyline
 90
5
 70
1
 10
98.764164
 20
110.270967
 30
0.0
 10
101.721847
 20
110.270967
 30
0.0
 10
101.721847
 20
70.800781
 30
0.0
 10
98.764164
 20
70.800781
 30
0.0
 10
98.764164
 20
110.270967
 30
0.0
  0
SPLINE
  5
244
100
AcDbEntity
  8
4chan_mixer_panel
 62
7
100
AcDbSpline
 70
8
 71
3
 72
8
 73
4
 74
0
 40
0
 40
0
 40
0
 40
0
 40
1
 40
1
 40
1
 40
1
 10
100.429053
 20
67.938218
 30
0.0
 10
100.429053
 20
67.765041
 30
0.0
 10
100.323762
 20
67.624652
 30
0.0
 10
100.193879
 20
67.624652
 30
0.0
  0
SPLINE
  5
245
100
AcDbEntity
  8
4chan_mixer_panel
 62
7
100
AcDbSpline
 70
8
 71
3
 72
8
 73
4
 74
0
 40
0
 40
0
 40
0
 40
0
 40
1
 40
1
 40
1
 40
1
 10
100.193879
 20
67.624652
 30
0.0
 10
100.063997
 20
67.624652
 30
0.0
 10
99.958706
 20
67.765041
 30
0.0
 10
99.958706
 20
67.938218
 30
0.0
  0
SPLINE
  5
246
100
AcDbEntity
  8
4chan_mixer_panel
 62
7
100
AcDbSpline
 70
8
 71
3
 72
8
 73
4
 74
0
 40
0
 40
0
 40
0
 40
0
 40
1
 40
1
 40
1
 40
1
 10
99.958706
 20
67.938218
 30
0.0
 10
99.958706
 20
68.111395
 30
0.0
 10
100.063997
 20
68.251781
 30
0.0
 10
100.193879
 20
68.251781
 30
0.0
  0
SPLINE
  5
247
100
AcDbEntity
  8
4chan_mixer_panel
 62
7
100
AcDbSpline
 70
8
 71
3
 72
8
 73
4
 74
0
 40
0
 40
0
 40
0
 40
0
 40
1
 40
1
 40
1
 40
1
 10
100.193879
 20
68.251781
 30
0.0
 10
100.323762
 20
68.251781
 30
0.0
 10
100.429053
 20
68.111395
 30
0.0
 10
100.429053
 20
67.938218
 30
0.0
  0
LWPOLYLINE
  5
248
100
AcDbEntity
  8
4chan_mixer_panel
 62
7
100
AcDbPolyline
 90
2
 70
1
 10
100.429053
 20
113.181967
 30
0.0
 10
100.429053
 20
113.181967
 30
0.0
  0
LWPOLYLINE
  5
249
100
AcDbEntity
  8
4chan_mixer_panel
 62
7
100
AcDbPolyline
 90
2
 70
1
 10
100.429053
 20
67.938218
 30
0.0
 10
100.429053
 20
67.938218
 30
0.0
  0
SPLINE
  5
24a
100
AcDbEntity
  8
4chan_mixer_panel
 62
7
100
AcDbSpline
 70
8
 71
3
 72
8
 73
4
 74
0
 40
0
 40
0
 40
0
 40
0
 40
1
 40
1
 40
1
 40
1
 10
116.091628
 20
113.181967
 30
0.0
 10
116.091628
 20
113.008790
 30
0.0
 10
115.986337
 20
112.868402
 30
0.0
 10
115.856454
 20
112.868402
 30
0.0
  0
SPLINE
  5
24b
100
AcDbEntity
  8
4chan_mixer_panel
 62
7
100
AcDbSpline
 70
8
 71
3
 72
8
 73
4
 74
0
 40
0
 40
0
 40
0
 40
0
 40
1
 40
1
 40
1
 40
1
 10
115.856454
 20
112.868402
 30
0.0
 10
115.726571
 20
112.868402
 30
0.0
 10
115.621281
 20
113.008790
 30
0.0
 10
115.621281
 20
113.181967
 30
0.0
  0
SPLINE
  5
24c
100
AcDbEntity
  8
4chan_mixer_panel
 62
7
100
AcDbSpline
 70
8
 71
3
 72
8
 73
4
 74
0
 40
0
 40
0
 40
0
 40
0
 40
1
 40
1
 40
1
 40
1
 10
115.621281
 20
113.181967
 30
0.0
 10
115.621281
 20
113.355145
 30
0.0
 10
115.726571
 20
113.495530
 30
0.0
 10
115.856454
 20
113.495530
 30
0.0
  0
SPLINE
  5
24d
100
AcDbEntity
  8
4chan_mixer_panel
 62
7
100
AcDbSpline
 70
8
 71
3
 72
8
 73
4
 74
0
 40
0
 40
0
 40
0
 40
0
 40
1
 40
1
 40
1
 40
1
 10
115.856454
 20
113.495530
 30
0.0
 10
115.986337
 20
113.495530
 30
0.0
 10
116.091628
 20
113.355145
 30
0.0
 10
116.091628
 20
113.181967
 30
0.0
  0
LWPOLYLINE
  5
24e
100
AcDbEntity
  8
4chan_mixer_panel
 62
7
100
AcDbPolyline
 90
5
 70
1
 10
114.426739
 20
110.270967
 30
0.0
 10
117.384422
 20
110.270967
 30
0.0
 10
117.384422
 20
70.800781
 30
0.0
 10
114.426739
 20
70.800781
 30
0.0
 10
114.426739
 20
110.270967
 30
0.0
  0
SPLINE
  5
24f
100
AcDbEntity
  8
4chan_mixer_panel
 62
7
100
AcDbSpline
 70
8
 71
3
 72
8
 73
4
 74
0
 40
0
 40
0
 40
0
 40
0
 40
1
 40
1
 40
1
 40
1
 10
116.091628
 20
67.938218
 30
0.0
 10
116.091628
 20
67.765041
 30
0.0
 10
115.986337
 20
67.624652
 30
0.0
 10
115.856454
 20
67.624652
 30
0.0
  0
SPLINE
  5
250
100
AcDbEntity
  8
4chan_mixer_panel
 62
7
100
AcDbSpline
 70
8
 71
3
 72
8
 73
4
 74
0
 40
0
 40
0
 40
0
 40
0
 40
1
 40
1
 40
1
 40
1
 10
115.856454
 20
67.624652
 30
0.0
 10
115.726571
 20
67.624652
 30
0.0
 10
115.621281
 20
67.765041
 30
0.0
 10
115.621281
 20
67.938218
 30
0.0
  0
SPLINE
  5
251
100
AcDbEntity
  8
4chan_mixer_panel
 62
7
100
AcDbSpline
 70
8
 71
3
 72
8
 73
4
 74
0
 40
0
 40
0
 40
0
 40
0
 40
1
 40
1
 40
1
 40
1
 10
115.621281
 20
67.938218
 30
0.0
 10
115.621281
 20
68.111395
 30
0.0
 10
115.726571
 20
68.251781
 30
0.0
 10
115.856454
 20
68.251781
 30
0.0
  0
SPLINE
  5
252
100
AcDbEntity
  8
4chan_mixer_panel
 62
7
100
AcDbSpline
 70
8
 71
3
 72
8
 73
4
 74
0
 40
0
 40
0
 40
0
 40
0
 40
1
 40
1
 40
1
 40
1
 10
115.856454
 20
68.251781
 30
0.0
 10
115.986337
 20
68.251781
 30
0.0
 10
116.091628
 20
68.111395
 30
0.0
 10
116.091628
 20
67.938218
 30
0.0
  0
LWPOLYLINE
  5
253
100
AcDbEntity
  8
4chan_mixer_panel
 62
7
100
AcDbPolyline
 90
2
 70
1
 10
116.091628
 20
113.181967
 30
0.0
 10
116.091628
 20
113.181967
 30
0.0
  0
LWPOLYLINE
  5
254
100
AcDbEntity
  8
4chan_mixer_panel
 62
7
100
AcDbPolyline
 90
2
 70
1
 10
116.091628
 20
67.938218
 30
0.0
 10
116.091628
 20
67.938218
 30
0.0
  0
SPLINE
  5
255
100
AcDbEntity
  8
4chan_mixer_panel
 62
7
100
AcDbSpline
 70
8
 71
3
 72
8
 73
4
 74
0
 40
0
 40
0
 40
0
 40
0
 40
1
 40
1
 40
1
 40
1
 10
131.754206
 20
113.181967
 30
0.0
 10
131.754206
 20
113.008790
 30
0.0
 10
131.648915
 20
112.868402
 30
0.0
 10
131.519032
 20
112.868402
 30
0.0
  0
SPLINE
  5
256
100
AcDbEntity
  8
4chan_mixer_panel
 62
7
100
AcDbSpline
 70
8
 71
3
 72
8
 73
4
 74
0
 40
0
 40
0
 40
0
 40
0
 40
1
 40
1
 40
1
 40
1
 10
131.519032
 20
112.868402
 30
0.0
 10
131.389150
 20
112.868402
 30
0.0
 10
131.283859
 20
113.008790
 30
0.0
 10
131.283859
 20
113.181967
 30
0.0
  0
SPLINE
  5
257
100
AcDbEntity
  8
4chan_mixer_panel
 62
7
100
AcDbSpline
 70
8
 71
3
 72
8
 73
4
 74
0
 40
0
 40
0
 40
0
 40
0
 40
1
 40
1
 40
1
 40
1
 10
131.283859
 20
113.181967
 30
0.0
 10
131.283859
 20
113.355145
 30
0.0
 10
131.389150
 20
113.495530
 30
0.0
 10
131.519032
 20
113.495530
 30
0.0
  0
SPLINE
  5
258
100
AcDbEntity
  8
4chan_mixer_panel
 62
7
100
AcDbSpline
 70
8
 71
3
 72
8
 73
4
 74
0
 40
0
 40
0
 40
0
 40
0
 40
1
 40
1
 40
1
 40
1
 10
131.519032
 20
113.495530
 30
0.0
 10
131.648915
 20
113.495530
 30
0.0
 10
131.754206
 20
113.355145
 30
0.0
 10
131.754206
 20
113.181967
 30
0.0
  0
LWPOLYLINE
  5
259
100
AcDbEntity
  8
4chan_mixer_panel
 62
7
100
AcDbPolyline
 90
5
 70
1
 10
130.089317
 20
110.270967
 30
0.0
 10
133.047000
 20
110.270967
 30
0.0
 10
133.047000
 20
70.800781
 30
0.0
 10
130.089317
 20
70.800781
 30
0.0
 10
130.089317
 20
110.270967
 30
0.0
  0
SPLINE
  5
25a
100
AcDbEntity
  8
4chan_mixer_panel
 62
7
100
AcDbSpline
 70
8
 71
3
 72
8
 73
4
 74
0
 40
0
 40
0
 40
0
 40
0
 40
1
 40
1
 40
1
 40
1
 10
131.754206
 20
67.938218
 30
0.0
 10
131.754206
 20
67.765041
 30
0.0
 10
131.648915
 20
67.624652
 30
0.0
 10
131.519032
 20
67.624652
 30
0.0
  0
SPLINE
  5
25b
100
AcDbEntity
  8
4chan_mixer_panel
 62
7
100
AcDbSpline
 70
8
 71
3
 72
8
 73
4
 74
0
 40
0
 40
0
 40
0
 40
0
 40
1
 40
1
 40
1
 40
1
 10
131.519032
 20
67.624652
 30
0.0
 10
131.389150
 20
67.624652
 30
0.0
 10
131.283859
 20
67.765041
 30
0.0
 10
131.283859
 20
67.938218
 30
0.0
  0
SPLINE
  5
25c
100
AcDbEntity
  8
4chan_mixer_panel
 62
7
100
AcDbSpline
 70
8
 71
3
 72
8
 73
4
 74
0
 40
0
 40
0
 40
0
 40
0
 40
1
 40
1
 40
1
 40
1
 10
131.283859
 20
67.938218
 30
0.0
 10
131.283859
 20
68.111395
 30
0.0
 10
131.389150
 20
68.251781
 30
0.0
 10
131.519032
 20
68.251781
 30
0.0
  0
SPLINE
  5
25d
100
AcDbEntity
  8
4chan_mixer_panel
 62
7
100
AcDbSpline
 70
8
 71
3
 72
8
 73
4
 74
0
 40
0
 40
0
 40
0
 40
0
 40
1
 40
1
 40
1
 40
1
 10
131.519032
 20
68.251781
 30
0.0
 10
131.648915
 20
68.251781
 30
0.0
 10
131.754206
 20
68.111395
 30
0.0
 10
131.754206
 20
67.938218
 30
0.0
  0
LWPOLYLINE
  5
25e
100
AcDbEntity
  8
4chan_mixer_panel
 62
7
100
AcDbPolyline
 90
2
 70
1
 10
131.754206
 20
113.181967
 30
0.0
 10
131.754206
 20
113.181967
 30
0.0
  0
LWPOLYLINE
  5
25f
100
AcDbEntity
  8
4chan_mixer_panel
 62
7
100
AcDbPolyline
 90
2
 70
1
 10
131.754206
 20
67.938218
 30
0.0
 10
131.754206
 20
67.938218
 30
0.0
  0
SPLINE
  5
260
100
AcDbEntity
  8
4chan_mixer_panel
 62
7
100
AcDbSpline
 70
8
 71
3
 72
8
 73
4
 74
0
 40
0
 40
0
 40
0
 40
0
 40
1
 40
1
 40
1
 40
1
 10
147.416781
 20
113.181967
 30
0.0
 10
147.416781
 20
113.008790
 30
0.0
 10
147.311490
 20
112.868402
 30
0.0
 10
147.181607
 20
112.868402
 30
0.0
  0
SPLINE
  5
261
100
AcDbEntity
  8
4chan_mixer_panel
 62
7
100
AcDbSpline
 70
8
 71
3
 72
8
 73
4
 74
0
 40
0
 40
0
 40
0
 40
0
 40
1
 40
1
 40
1
 40
1
 10
147.181607
 20
112.868402
 30
0.0
 10
147.051725
 20
112.868402
 30
0.0
 10
146.946434
 20
113.008790
 30
0.0
 10
146.946434
 20
113.181967
 30
0.0
  0
SPLINE
  5
262
100
AcDbEntity
  8
4chan_mixer_panel
 62
7
100
AcDbSpline
 70
8
 71
3
 72
8
 73
4
 74
0
 40
0
 40
0
 40
0
 40
0
 40
1
 40
1
 40
1
 40
1
 10
146.946434
 20
113.181967
 30
0.0
 10
146.946434
 20
113.355145
 30
0.0
 10
147.051725
 20
113.495530
 30
0.0
 10
147.181607
 20
113.495530
 30
0.0
  0
SPLINE
  5
263
100
AcDbEntity
  8
4chan_mixer_panel
 62
7
100
AcDbSpline
 70
8
 71
3
 72
8
 73
4
 74
0
 40
0
 40
0
 40
0
 40
0
 40
1
 40
1
 40
1
 40
1
 10
147.181607
 20
113.495530
 30
0.0
 10
147.311490
 20
113.495530
 30
0.0
 10
147.416781
 20
113.355145
 30
0.0
 10
147.416781
 20
113.181967
 30
0.0
  0
LWPOLYLINE
  5
264
100
AcDbEntity
  8
4chan_mixer_panel
 62
7
100
AcDbPolyline
 90
5
 70
1
 10
145.751892
 20
110.270967
 30
0.0
 10
148.709575
 20
110.270967
 30
0.0
 10
148.709575
 20
70.800781
 30
0.0
 10
145.751892
 20
70.800781
 30
0.0
 10
145.751892
 20
110.270967
 30
0.0
  0
SPLINE
  5
265
100
AcDbEntity
  8
4chan_mixer_panel
 62
7
100
AcDbSpline
 70
8
 71
3
 72
8
 73
4
 74
0
 40
0
 40
0
 40
0
 40
0
 40
1
 40
1
 40
1
 40
1
 10
147.416781
 20
67.938218
 30
0.0
 10
147.416781
 20
67.765041
 30
0.0
 10
147.311490
 20
67.624652
 30
0.0
 10
147.181607
 20
67.624652
 30
0.0
  0
SPLINE
  5
266
100
AcDbEntity
  8
4chan_mixer_panel
 62
7
100
AcDbSpline
 70
8
 71
3
 72
8
 73
4
 74
0
 40
0
 40
0
 40
0
 40
0
 40
1
 40
1
 40
1
 40
1
 10
147.181607
 20
67.624652
 30
0.0
 10
147.051725
 20
67.624652
 30
0.0
 10
146.946434
 20
67.765041
 30
0.0
 10
146.946434
 20
67.938218
 30
0.0
  0
SPLINE
  5
267
100
AcDbEntity
  8
4chan_mixer_panel
 62
7
100
AcDbSpline
 70
8
 71
3
 72
8
 73
4
 74
0
 40
0
 40
0
 40
0
 40
0
 40
1
 40
1
 40
1
 40
1
 10
146.946434
 20
67.938218
 30
0.0
 10
146.946434
 20
68.111395
 30
0.0
 10
147.051725
 20
68.251781
 30
0.0
 10
147.181607
 20
68.251781
 30
0.0
  0
SPLINE
  5
268
100
AcDbEntity
  8
4chan_mixer_panel
 62
7
100
AcDbSpline
 70
8
 71
3
 72
8
 73
4
 74
0
 40
0
 40
0
 40
0
 40
0
 40
1
 40
1
 40
1
 40
1
 10
147.181607
 20
68.251781
 30
0.0
 10
147.311490
 20
68.251781
 30
0.0
 10
147.416781
 20
68.111395
 30
0.0
 10
147.416781
 20
67.938218
 30
0.0
  0
LWPOLYLINE
  5
269
100
AcDbEntity
  8
4chan_mixer_panel
 62
7
100
AcDbPolyline
 90
2
 70
1
 10
147.416781
 20
113.181967
 30
0.0
 10
147.416781
 20
113.181967
 30
0.0
  0
LWPOLYLINE
  5
26a
100
AcDbEntity
  8
4chan_mixer_panel
 62
7
100
AcDbPolyline
 90
2
 70
1
 10
147.416781
 20
67.938218
 30
0.0
 10
147.416781
 20
67.938218
 30
0.0
  0
SPLINE
  5
26b
100
AcDbEntity
  8
4chan_mixer_panel
 62
7
100
AcDbSpline
 70
8
 71
3
 72
8
 73
4
 74
0
 40
0
 40
0
 40
0
 40
0
 40
1
 40
1
 40
1
 40
1
 10
163.079356
 20
113.181967
 30
0.0
 10
163.079356
 20
113.008790
 30
0.0
 10
162.974065
 20
112.868402
 30
0.0
 10
162.844182
 20
112.868402
 30
0.0
  0
SPLINE
  5
26c
100
AcDbEntity
  8
4chan_mixer_panel
 62
7
100
AcDbSpline
 70
8
 71
3
 72
8
 73
4
 74
0
 40
0
 40
0
 40
0
 40
0
 40
1
 40
1
 40
1
 40
1
 10
162.844182
 20
112.868402
 30
0.0
 10
162.714300
 20
112.868402
 30
0.0
 10
162.609009
 20
113.008790
 30
0.0
 10
162.609009
 20
113.181967
 30
0.0
  0
SPLINE
  5
26d
100
AcDbEntity
  8
4chan_mixer_panel
 62
7
100
AcDbSpline
 70
8
 71
3
 72
8
 73
4
 74
0
 40
0
 40
0
 40
0
 40
0
 40
1
 40
1
 40
1
 40
1
 10
162.609009
 20
113.181967
 30
0.0
 10
162.609009
 20
113.355145
 30
0.0
 10
162.714300
 20
113.495530
 30
0.0
 10
162.844182
 20
113.495530
 30
0.0
  0
SPLINE
  5
26e
100
AcDbEntity
  8
4chan_mixer_panel
 62
7
100
AcDbSpline
 70
8
 71
3
 72
8
 73
4
 74
0
 40
0
 40
0
 40
0
 40
0
 40
1
 40
1
 40
1
 40
1
 10
162.844182
 20
113.495530
 30
0.0
 10
162.974065
 20
113.495530
 30
0.0
 10
163.079356
 20
113.355145
 30
0.0
 10
163.079356
 20
113.181967
 30
0.0
  0
LWPOLYLINE
  5
26f
100
AcDbEntity
  8
4chan_mixer_panel
 62
7
100
AcDbPolyline
 90
5
 70
1
 10
161.414467
 20
110.270967
 30
0.0
 10
164.372150
 20
110.270967
 30
0.0
 10
164.372150
 20
70.800781
 30
0.0
 10
161.414467
 20
70.800781
 30
0.0
 10
161.414467
 20
110.270967
 30
0.0
  0
SPLINE
  5
270
100
AcDbEntity
  8
4chan_mixer_panel
 62
7
100
AcDbSpline
 70
8
 71
3
 72
8
 73
4
 74
0
 40
0
 40
0
 40
0
 40
0
 40
1
 40
1
 40
1
 40
1
 10
163.079356
 20
67.938218
 30
0.0
 10
163.079356
 20
67.765041
 30
0.0
 10
162.974065
 20
67.624652
 30
0.0
 10
162.844182
 20
67.624652
 30
0.0
  0
SPLINE
  5
271
100
AcDbEntity
  8
4chan_mixer_panel
 62
7
100
AcDbSpline
 70
8
 71
3
 72
8
 73
4
 74
0
 40
0
 40
0
 40
0
 40
0
 40
1
 40
1
 40
1
 40
1
 10
162.844182
 20
67.624652
 30
0.0
 10
162.714300
 20
67.624652
 30
0.0
 10
162.609009
 20
67.765041
 30
0.0
 10
162.609009
 20
67.938218
 30
0.0
  0
SPLINE
  5
272
100
AcDbEntity
  8
4chan_mixer_panel
 62
7
100
AcDbSpline
 70
8
 71
3
 72
8
 73
4
 74
0
 40
0
 40
0
 40
0
 40
0
 40
1
 40
1
 40
1
 40
1
 10
162.609009
 20
67.938218
 30
0.0
 10
162.609009
 20
68.111395
 30
0.0
 10
162.714300
 20
68.251781
 30
0.0
 10
162.844182
 20
68.251781
 30
0.0
  0
SPLINE
  5
273
100
AcDbEntity
  8
4chan_mixer_panel
 62
7
100
AcDbSpline
 70
8
 71
3
 72
8
 73
4
 74
0
 40
0
 40
0
 40
0
 40
0
 40
1
 40
1
 40
1
 40
1
 10
162.844182
 20
68.251781
 30
0.0
 10
162.974065
 20
68.251781
 30
0.0
 10
163.079356
 20
68.111395
 30
0.0
 10
163.079356
 20
67.938218
 30
0.0
  0
LWPOLYLINE
  5
274
100
AcDbEntity
  8
4chan_mixer_panel
 62
7
100
AcDbPolyline
 90
2
 70
1
 10
163.079356
 20
113.181967
 30
0.0
 10
163.079356
 20
113.181967
 30
0.0
  0
LWPOLYLINE
  5
275
100
AcDbEntity
  8
4chan_mixer_panel
 62
7
100
AcDbPolyline
 90
2
 70
1
 10
163.079356
 20
67.938218
 30
0.0
 10
163.079356
 20
67.938218
 30
0.0
  0
SPLINE
  5
276
100
AcDbEntity
  8
4chan_mixer_panel
 62
7
100
AcDbSpline
 70
8
 71
3
 72
8
 73
4
 74
0
 40
0
 40
0
 40
0
 40
0
 40
1
 40
1
 40
1
 40
1
 10
178.741938
 20
113.181967
 30
0.0
 10
178.741938
 20
113.008790
 30
0.0
 10
178.636647
 20
112.868402
 30
0.0
 10
178.506764
 20
112.868402
 30
0.0
  0
SPLINE
  5
277
100
AcDbEntity
  8
4chan_mixer_panel
 62
7
100
AcDbSpline
 70
8
 71
3
 72
8
 73
4
 74
0
 40
0
 40
0
 40
0
 40
0
 40
1
 40
1
 40
1
 40
1
 10
178.506764
 20
112.868402
 30
0.0
 10
178.376881
 20
112.868402
 30
0.0
 10
178.271591
 20
113.008790
 30
0.0
 10
178.271591
 20
113.181967
 30
0.0
  0
SPLINE
  5
278
100
AcDbEntity
  8
4chan_mixer_panel
 62
7
100
AcDbSpline
 70
8
 71
3
 72
8
 73
4
 74
0
 40
0
 40
0
 40
0
 40
0
 40
1
 40
1
 40
1
 40
1
 10
178.271591
 20
113.181967
 30
0.0
 10
178.271591
 20
113.355145
 30
0.0
 10
178.376881
 20
113.495530
 30
0.0
 10
178.506764
 20
113.495530
 30
0.0
  0
SPLINE
  5
279
100
AcDbEntity
  8
4chan_mixer_panel
 62
7
100
AcDbSpline
 70
8
 71
3
 72
8
 73
4
 74
0
 40
0
 40
0
 40
0
 40
0
 40
1
 40
1
 40
1
 40
1
 10
178.506764
 20
113.495530
 30
0.0
 10
178.636647
 20
113.495530
 30
0.0
 10
178.741938
 20
113.355145
 30
0.0
 10
178.741938
 20
113.181967
 30
0.0
  0
LWPOLYLINE
  5
27a
100
AcDbEntity
  8
4chan_mixer_panel
 62
7
100
AcDbPolyline
 90
5
 70
1
 10
177.077049
 20
110.270967
 30
0.0
 10
180.034732
 20
110.270967
 30
0.0
 10
180.034732
 20
70.800781
 30
0.0
 10
177.077049
 20
70.800781
 30
0.0
 10
177.077049
 20
110.270967
 30
0.0
  0
SPLINE
  5
27b
100
AcDbEntity
  8
4chan_mixer_panel
 62
7
100
AcDbSpline
 70
8
 71
3
 72
8
 73
4
 74
0
 40
0
 40
0
 40
0
 40
0
 40
1
 40
1
 40
1
 40
1
 10
178.741938
 20
67.938218
 30
0.0
 10
178.741938
 20
67.765041
 30
0.0
 10
178.636647
 20
67.624652
 30
0.0
 10
178.506764
 20
67.624652
 30
0.0
  0
SPLINE
  5
27c
100
AcDbEntity
  8
4chan_mixer_panel
 62
7
100
AcDbSpline
 70
8
 71
3
 72
8
 73
4
 74
0
 40
0
 40
0
 40
0
 40
0
 40
1
 40
1
 40
1
 40
1
 10
178.506764
 20
67.624652
 30
0.0
 10
178.376881
 20
67.624652
 30
0.0
 10
178.271591
 20
67.765041
 30
0.0
 10
178.271591
 20
67.938218
 30
0.0
  0
SPLINE
  5
27d
100
AcDbEntity
  8
4chan_mixer_panel
 62
7
100
AcDbSpline
 70
8
 71
3
 72
8
 73
4
 74
0
 40
0
 40
0
 40
0
 40
0
 40
1
 40
1
 40
1
 40
1
 10
178.271591
 20
67.938218
 30
0.0
 10
178.271591
 20
68.111395
 30
0.0
 10
178.376881
 20
68.251781
 30
0.0
 10
178.506764
 20
68.251781
 30
0.0
  0
SPLINE
  5
27e
100
AcDbEntity
  8
4chan_mixer_panel
 62
7
100
AcDbSpline
 70
8
 71
3
 72
8
 73
4
 74
0
 40
0
 40
0
 40
0
 40
0
 40
1
 40
1
 40
1
 40
1
 10
178.506764
 20
68.251781
 30
0.0
 10
178.636647
 20
68.251781
 30
0.0
 10
178.741938
 20
68.111395
 30
0.0
 10
178.741938
 20
67.938218
 30
0.0
  0
LWPOLYLINE
  5
27f
100
AcDbEntity
  8
4chan_mixer_panel
 62
7
100
AcDbPolyline
 90
2
 70
1
 10
178.741938
 20
113.181967
 30
0.0
 10
178.741938
 20
113.181967
 30
0.0
  0
LWPOLYLINE
  5
280
100
AcDbEntity
  8
4chan_mixer_panel
 62
7
100
AcDbPolyline
 90
2
 70
1
 10
178.741938
 20
67.938218
 30
0.0
 10
178.741938
 20
67.938218
 30
0.0
  0
LWPOLYLINE
  5
281
100
AcDbEntity
  8
4chan_mixer_panel
 62
7
100
AcDbPolyline
 90
2
 70
0
 10
197.098316
 20
138.078273
 30
0.0
 10
197.098316
 20
9.673664
 30
0.0
  0
LWPOLYLINE
  5
282
100
AcDbEntity
  8
4chan_mixer_panel
 62
7
100
AcDbPolyline
 90
3
 70
0
 10
18.633978
 20
9.673663
 30
0.0
 10
18.633978
 20
138.078275
 30
0.0
 10
197.098317
 20
138.078275
 30
0.0
  0
SPLINE
  5
283
100
AcDbEntity
  8
4chan_mixer_panel
 62
7
100
AcDbSpline
 70
8
 71
3
 72
8
 73
4
 74
0
 40
0
 40
0
 40
0
 40
0
 40
1
 40
1
 40
1
 40
1
 10
91.241650
 20
32.030121
 30
0.0
 10
91.241650
 20
31.163103
 30
0.0
 10
90.537840
 20
30.460247
 30
0.0
 10
89.669646
 20
30.460247
 30
0.0
  0
SPLINE
  5
284
100
AcDbEntity
  8
4chan_mixer_panel
 62
7
100
AcDbSpline
 70
8
 71
3
 72
8
 73
4
 74
0
 40
0
 40
0
 40
0
 40
0
 40
1
 40
1
 40
1
 40
1
 10
89.669646
 20
30.460247
 30
0.0
 10
88.801453
 20
30.460247
 30
0.0
 10
88.097643
 20
31.163103
 30
0.0
 10
88.097643
 20
32.030121
 30
0.0
  0
SPLINE
  5
285
100
AcDbEntity
  8
4chan_mixer_panel
 62
7
100
AcDbSpline
 70
8
 71
3
 72
8
 73
4
 74
0
 40
0
 40
0
 40
0
 40
0
 40
1
 40
1
 40
1
 40
1
 10
88.097643
 20
32.030121
 30
0.0
 10
88.097643
 20
32.897138
 30
0.0
 10
88.801453
 20
33.599995
 30
0.0
 10
89.669646
 20
33.599995
 30
0.0
  0
SPLINE
  5
286
100
AcDbEntity
  8
4chan_mixer_panel
 62
7
100
AcDbSpline
 70
8
 71
3
 72
8
 73
4
 74
0
 40
0
 40
0
 40
0
 40
0
 40
1
 40
1
 40
1
 40
1
 10
89.669646
 20
33.599995
 30
0.0
 10
90.537840
 20
33.599995
 30
0.0
 10
91.241650
 20
32.897138
 30
0.0
 10
91.241650
 20
32.030121
 30
0.0
  0
LWPOLYLINE
  5
287
100
AcDbEntity
  8
4chan_mixer_panel
 62
7
100
AcDbPolyline
 90
2
 70
0
 10
197.098317
 20
9.673663
 30
0.0
 10
18.633978
 20
9.673663
 30
0.0
  0
SPLINE
  5
288
100
AcDbEntity
  8
4chan_mixer_panel
 62
7
100
AcDbSpline
 70
8
 71
3
 72
8
 73
4
 74
0
 40
0
 40
0
 40
0
 40
0
 40
1
 40
1
 40
1
 40
1
 10
113.549200
 20
32.030121
 30
0.0
 10
113.549200
 20
31.163103
 30
0.0
 10
112.845390
 20
30.460247
 30
0.0
 10
111.977196
 20
30.460247
 30
0.0
  0
SPLINE
  5
289
100
AcDbEntity
  8
4chan_mixer_panel
 62
7
100
AcDbSpline
 70
8
 71
3
 72
8
 73
4
 74
0
 40
0
 40
0
 40
0
 40
0
 40
1
 40
1
 40
1
 40
1
 10
111.977196
 20
30.460247
 30
0.0
 10
111.109003
 20
30.460247
 30
0.0
 10
110.405193
 20
31.163103
 30
0.0
 10
110.405193
 20
32.030121
 30
0.0
  0
SPLINE
  5
28a
100
AcDbEntity
  8
4chan_mixer_panel
 62
7
100
AcDbSpline
 70
8
 71
3
 72
8
 73
4
 74
0
 40
0
 40
0
 40
0
 40
0
 40
1
 40
1
 40
1
 40
1
 10
110.405193
 20
32.030121
 30
0.0
 10
110.405193
 20
32.897138
 30
0.0
 10
111.109003
 20
33.599995
 30
0.0
 10
111.977196
 20
33.599995
 30
0.0
  0
SPLINE
  5
28b
100
AcDbEntity
  8
4chan_mixer_panel
 62
7
100
AcDbSpline
 70
8
 71
3
 72
8
 73
4
 74
0
 40
0
 40
0
 40
0
 40
0
 40
1
 40
1
 40
1
 40
1
 10
111.977196
 20
33.599995
 30
0.0
 10
112.845390
 20
33.599995
 30
0.0
 10
113.549200
 20
32.897138
 30
0.0
 10
113.549200
 20
32.030121
 30
0.0
  0
LWPOLYLINE
  5
28c
100
AcDbEntity
  8
4chan_mixer_panel
 62
7
100
AcDbPolyline
 90
2
 70
1
 10
91.241650
 20
32.030121
 30
0.0
 10
91.241650
 20
32.030121
 30
0.0
  0
SPLINE
  5
28d
100
AcDbEntity
  8
4chan_mixer_panel
 62
7
100
AcDbSpline
 70
8
 71
3
 72
8
 73
4
 74
0
 40
0
 40
0
 40
0
 40
0
 40
1
 40
1
 40
1
 40
1
 10
108.285062
 20
32.030119
 30
0.0
 10
108.285062
 20
27.909187
 30
0.0
 10
104.944370
 20
24.568514
 30
0.0
 10
100.823417
 20
24.568514
 30
0.0
  0
SPLINE
  5
28e
100
AcDbEntity
  8
4chan_mixer_panel
 62
7
100
AcDbSpline
 70
8
 71
3
 72
8
 73
4
 74
0
 40
0
 40
0
 40
0
 40
0
 40
1
 40
1
 40
1
 40
1
 10
100.823417
 20
24.568514
 30
0.0
 10
96.702468
 20
24.568514
 30
0.0
 10
93.361776
 20
27.909187
 30
0.0
 10
93.361776
 20
32.030119
 30
0.0
  0
SPLINE
  5
28f
100
AcDbEntity
  8
4chan_mixer_panel
 62
7
100
AcDbSpline
 70
8
 71
3
 72
8
 73
4
 74
0
 40
0
 40
0
 40
0
 40
0
 40
1
 40
1
 40
1
 40
1
 10
93.361776
 20
32.030119
 30
0.0
 10
93.361776
 20
36.151051
 30
0.0
 10
96.702468
 20
39.491727
 30
0.0
 10
100.823417
 20
39.491727
 30
0.0
  0
SPLINE
  5
290
100
AcDbEntity
  8
4chan_mixer_panel
 62
7
100
AcDbSpline
 70
8
 71
3
 72
8
 73
4
 74
0
 40
0
 40
0
 40
0
 40
0
 40
1
 40
1
 40
1
 40
1
 10
100.823417
 20
39.491727
 30
0.0
 10
104.944370
 20
39.491727
 30
0.0
 10
108.285062
 20
36.151051
 30
0.0
 10
108.285062
 20
32.030119
 30
0.0
  0
LWPOLYLINE
  5
291
100
AcDbEntity
  8
4chan_mixer_panel
 62
7
100
AcDbPolyline
 90
2
 70
1
 10
113.549200
 20
32.030121
 30
0.0
 10
113.549200
 20
32.030121
 30
0.0
  0
SPLINE
  5
292
100
AcDbEntity
  8
4chan_mixer_panel
 62
7
100
AcDbSpline
 70
8
 71
3
 72
8
 73
4
 74
0
 40
0
 40
0
 40
0
 40
0
 40
1
 40
1
 40
1
 40
1
 10
174.192206
 20
31.664926
 30
0.0
 10
174.192206
 20
33.435899
 30
0.0
 10
175.372851
 20
34.616547
 30
0.0
 10
177.143816
 20
34.616547
 30
0.0
  0
SPLINE
  5
293
100
AcDbEntity
  8
4chan_mixer_panel
 62
7
100
AcDbSpline
 70
8
 71
3
 72
8
 73
4
 74
0
 40
0
 40
0
 40
0
 40
0
 40
1
 40
1
 40
1
 40
1
 10
177.143816
 20
34.616547
 30
0.0
 10
178.914780
 20
34.616547
 30
0.0
 10
180.095423
 20
33.435899
 30
0.0
 10
180.095423
 20
31.664926
 30
0.0
  0
SPLINE
  5
294
100
AcDbEntity
  8
4chan_mixer_panel
 62
7
100
AcDbSpline
 70
8
 71
3
 72
8
 73
4
 74
0
 40
0
 40
0
 40
0
 40
0
 40
1
 40
1
 40
1
 40
1
 10
180.095423
 20
31.664926
 30
0.0
 10
180.095423
 20
29.893953
 30
0.0
 10
178.914780
 20
28.713305
 30
0.0
 10
177.143816
 20
28.713305
 30
0.0
  0
SPLINE
  5
295
100
AcDbEntity
  8
4chan_mixer_panel
 62
7
100
AcDbSpline
 70
8
 71
3
 72
8
 73
4
 74
0
 40
0
 40
0
 40
0
 40
0
 40
1
 40
1
 40
1
 40
1
 10
177.143816
 20
28.713305
 30
0.0
 10
175.372851
 20
28.713305
 30
0.0
 10
174.192206
 20
29.893953
 30
0.0
 10
174.192206
 20
31.664926
 30
0.0
  0
LWPOLYLINE
  5
296
100
AcDbEntity
  8
4chan_mixer_panel
 62
7
100
AcDbPolyline
 90
2
 70
1
 10
108.285062
 20
32.030119
 30
0.0
 10
108.285062
 20
32.030119
 30
0.0
  0
LWPOLYLINE
  5
297
100
AcDbEntity
  8
4chan_mixer_panel
 62
7
100
AcDbPolyline
 90
2
 70
0
 10
175.963170
 20
31.664926
 30
0.0
 10
178.324458
 20
31.664926
 30
0.0
  0
SPLINE
  5
298
100
AcDbEntity
  8
4chan_mixer_panel
 62
7
100
AcDbSpline
 70
8
 71
3
 72
8
 73
4
 74
0
 40
0
 40
0
 40
0
 40
0
 40
1
 40
1
 40
1
 40
1
 10
127.510564
 20
32.030121
 30
0.0
 10
127.510564
 20
31.163103
 30
0.0
 10
126.806754
 20
30.460247
 30
0.0
 10
125.938560
 20
30.460247
 30
0.0
  0
SPLINE
  5
299
100
AcDbEntity
  8
4chan_mixer_panel
 62
7
100
AcDbSpline
 70
8
 71
3
 72
8
 73
4
 74
0
 40
0
 40
0
 40
0
 40
0
 40
1
 40
1
 40
1
 40
1
 10
125.938560
 20
30.460247
 30
0.0
 10
125.070367
 20
30.460247
 30
0.0
 10
124.366557
 20
31.163103
 30
0.0
 10
124.366557
 20
32.030121
 30
0.0
  0
SPLINE
  5
29a
100
AcDbEntity
  8
4chan_mixer_panel
 62
7
100
AcDbSpline
 70
8
 71
3
 72
8
 73
4
 74
0
 40
0
 40
0
 40
0
 40
0
 40
1
 40
1
 40
1
 40
1
 10
124.366557
 20
32.030121
 30
0.0
 10
124.366557
 20
32.897138
 30
0.0
 10
125.070367
 20
33.599995
 30
0.0
 10
125.938560
 20
33.599995
 30
0.0
  0
SPLINE
  5
29b
100
AcDbEntity
  8
4chan_mixer_panel
 62
7
100
AcDbSpline
 70
8
 71
3
 72
8
 73
4
 74
0
 40
0
 40
0
 40
0
 40
0
 40
1
 40
1
 40
1
 40
1
 10
125.938560
 20
33.599995
 30
0.0
 10
126.806754
 20
33.599995
 30
0.0
 10
127.510564
 20
32.897138
 30
0.0
 10
127.510564
 20
32.030121
 30
0.0
  0
LWPOLYLINE
  5
29c
100
AcDbEntity
  8
4chan_mixer_panel
 62
7
100
AcDbPolyline
 90
2
 70
0
 10
177.143816
 20
30.484278
 30
0.0
 10
177.143816
 20
32.845574
 30
0.0
  0
SPLINE
  5
29d
100
AcDbEntity
  8
4chan_mixer_panel
 62
7
100
AcDbSpline
 70
8
 71
3
 72
8
 73
4
 74
0
 40
0
 40
0
 40
0
 40
0
 40
1
 40
1
 40
1
 40
1
 10
149.818114
 20
32.030121
 30
0.0
 10
149.818114
 20
31.163103
 30
0.0
 10
149.114304
 20
30.460247
 30
0.0
 10
148.246110
 20
30.460247
 30
0.0
  0
SPLINE
  5
29e
100
AcDbEntity
  8
4chan_mixer_panel
 62
7
100
AcDbSpline
 70
8
 71
3
 72
8
 73
4
 74
0
 40
0
 40
0
 40
0
 40
0
 40
1
 40
1
 40
1
 40
1
 10
148.246110
 20
30.460247
 30
0.0
 10
147.377917
 20
30.460247
 30
0.0
 10
146.674107
 20
31.163103
 30
0.0
 10
146.674107
 20
32.030121
 30
0.0
  0
SPLINE
  5
29f
100
AcDbEntity
  8
4chan_mixer_panel
 62
7
100
AcDbSpline
 70
8
 71
3
 72
8
 73
4
 74
0
 40
0
 40
0
 40
0
 40
0
 40
1
 40
1
 40
1
 40
1
 10
146.674107
 20
32.030121
 30
0.0
 10
146.674107
 20
32.897138
 30
0.0
 10
147.377917
 20
33.599995
 30
0.0
 10
148.246110
 20
33.599995
 30
0.0
  0
SPLINE
  5
2a0
100
AcDbEntity
  8
4chan_mixer_panel
 62
7
100
AcDbSpline
 70
8
 71
3
 72
8
 73
4
 74
0
 40
0
 40
0
 40
0
 40
0
 40
1
 40
1
 40
1
 40
1
 10
148.246110
 20
33.599995
 30
0.0
 10
149.114304
 20
33.599995
 30
0.0
 10
149.818114
 20
32.897138
 30
0.0
 10
149.818114
 20
32.030121
 30
0.0
  0
LWPOLYLINE
  5
2a1
100
AcDbEntity
  8
4chan_mixer_panel
 62
7
100
AcDbPolyline
 90
2
 70
1
 10
127.510564
 20
32.030121
 30
0.0
 10
127.510564
 20
32.030121
 30
0.0
  0
SPLINE
  5
2a2
100
AcDbEntity
  8
4chan_mixer_panel
 62
7
100
AcDbSpline
 70
8
 71
3
 72
8
 73
4
 74
0
 40
0
 40
0
 40
0
 40
0
 40
1
 40
1
 40
1
 40
1
 10
144.553976
 20
32.030119
 30
0.0
 10
144.553976
 20
27.909187
 30
0.0
 10
141.213284
 20
24.568514
 30
0.0
 10
137.092331
 20
24.568514
 30
0.0
  0
SPLINE
  5
2a3
100
AcDbEntity
  8
4chan_mixer_panel
 62
7
100
AcDbSpline
 70
8
 71
3
 72
8
 73
4
 74
0
 40
0
 40
0
 40
0
 40
0
 40
1
 40
1
 40
1
 40
1
 10
137.092331
 20
24.568514
 30
0.0
 10
132.971382
 20
24.568514
 30
0.0
 10
129.630690
 20
27.909187
 30
0.0
 10
129.630690
 20
32.030119
 30
0.0
  0
SPLINE
  5
2a4
100
AcDbEntity
  8
4chan_mixer_panel
 62
7
100
AcDbSpline
 70
8
 71
3
 72
8
 73
4
 74
0
 40
0
 40
0
 40
0
 40
0
 40
1
 40
1
 40
1
 40
1
 10
129.630690
 20
32.030119
 30
0.0
 10
129.630690
 20
36.151051
 30
0.0
 10
132.971382
 20
39.491727
 30
0.0
 10
137.092331
 20
39.491727
 30
0.0
  0
SPLINE
  5
2a5
100
AcDbEntity
  8
4chan_mixer_panel
 62
7
100
AcDbSpline
 70
8
 71
3
 72
8
 73
4
 74
0
 40
0
 40
0
 40
0
 40
0
 40
1
 40
1
 40
1
 40
1
 10
137.092331
 20
39.491727
 30
0.0
 10
141.213284
 20
39.491727
 30
0.0
 10
144.553976
 20
36.151051
 30
0.0
 10
144.553976
 20
32.030119
 30
0.0
  0
LWPOLYLINE
  5
2a6
100
AcDbEntity
  8
4chan_mixer_panel
 62
7
100
AcDbPolyline
 90
2
 70
1
 10
149.818114
 20
32.030121
 30
0.0
 10
149.818114
 20
32.030121
 30
0.0
  0
LWPOLYLINE
  5
2a7
100
AcDbEntity
  8
4chan_mixer_panel
 62
7
100
AcDbPolyline
 90
2
 70
1
 10
144.553976
 20
32.030119
 30
0.0
 10
144.553976
 20
32.030119
 30
0.0
  0
ENDSEC
  0
SECTION
  2
OBJECTS
  0
DICTIONARY
  5
C
330
0
100
AcDbDictionary
  3
ACAD_GROUP
350
D
  3
ACAD_MLINESTYLE
350
17
  0
DICTIONARY
  5
D
330
C
100
AcDbDictionary
  0
DICTIONARY
  5
1A
330
C
100
AcDbDictionary
  0
DICTIONARY
  5
17
330
C
100
AcDbDictionary
  3
STANDARD
350
18
  0
DICTIONARY
  5
19
330
C
100
AcDbDictionary
  0
ENDSEC
  0
EOF
